<?xml version="1.0" encoding="UTF-8"?>
<!DOCTYPE svg PUBLIC "-//W3C//DTD SVG 1.1//EN" "http://www.w3.org/Graphics/SVG/1.1/DTD/svg11.dtd">
<!-- Creator: CorelDRAW 2020 (64 Bit) -->
<svg xmlns="http://www.w3.org/2000/svg" xml:space="preserve" width="42.3332mm" height="42.3332mm" version="1.1" style="shape-rendering:geometricPrecision; text-rendering:geometricPrecision; image-rendering:optimizeQuality; fill-rule:evenodd; clip-rule:evenodd"
viewBox="0 0 4233.32 4233.32"
 xmlns:xlink="http://www.w3.org/1999/xlink"
 xmlns:xodm="http://www.corel.com/coreldraw/odm/2003">
 <defs>
  <style type="text/css">
   <![CDATA[
    .fil1 {fill:#01A94A}
    .fil2 {fill:#337BBF}
    .fil3 {fill:#E6191B}
    .fil4 {fill:#FDBC01}
    .fil0 {fill:#FE4130}
   ]]>
  </style>
   <clipPath id="id0">
    <rect x="33.87" y="558.8" width="4165.58" height="3115.72"/>
   </clipPath>
 </defs>
 <g id="Camada_x0020_1">
  <metadata id="CorelCorpID_0Corel-Layer"/>
  <g style="clip-path:url(#id0)">
   <image x="33.87" y="558.8" width="4165.58" height="3115.72" xlink:href="email_Images\email_ImgID1.png"/>
  </g>
  <g id="_1476595558688">
   <path class="fil0" d="M989.21 2066.44l1.39 16.35c74.93,39.65 491.35,358.07 567.26,414.87 53.43,39.98 536.25,418.88 567.27,414.86 17.31,-2.24 247.14,-183.23 281.81,-209.25l561.23 -420.9c96.27,-72.16 185.47,-140.76 282.58,-208.04l-0.36 -8.05 -7.32 -1219.61c-51.14,33.36 -94.03,65.98 -143.06,102.82l-840.64 632.55c-49.07,36.81 -92.05,68.9 -142.71,102.82 -180.54,-120.9 -506.46,-379.83 -701.51,-526.15 -106.91,-80.2 -324.47,-248.87 -425.48,-312.04l-0.46 1219.77z"/>
   <path class="fil1" d="M3250.39 2066.28l0.36 8.05 0.44 1600.19 6.35 0 6.35 0 6.35 0 6.35 0 6.35 0 6.35 0 6.35 0 6.35 0 6.35 0 6.35 0 6.35 0 6.35 0 6.35 0 6.35 0 6.35 0 6.35 0 6.35 0 6.35 0 6.35 0 6.35 0 6.35 0 6.35 0 6.35 0 6.35 0 6.35 0 6.35 0 6.35 0 6.35 0 6.35 0 6.35 0 6.35 0 6.35 0 6.35 0 6.35 0 6.35 0 6.35 0 6.35 0 6.35 0 6.35 0 6.35 0 6.35 0 6.35 0 6.35 0 6.35 0 6.35 0 6.35 0 6.35 0 6.35 0 6.35 0 6.35 0 6.35 0 6.35 0 6.35 0 6.35 0 6.35 0 6.35 0 6.35 0 6.35 0 6.35 0 6.35 0 6.35 0 6.35 0 6.35 0 6.35 0 238.52 0c99.52,-7.66 187.9,-35.47 247.79,-123.28 35.46,-51.99 50.09,-127.17 55.55,-206.65l0 -258.16c-1.65,-36.61 -8.27,-46.21 -8.8,-88.9 -1.76,-142.56 8.83,-264.87 8.8,-398.27l0 -1137.62c-1.66,-34.2 -8.47,-51.01 -8.47,-89.15 -42.78,23.06 -83.74,56.77 -124.75,86.06 -41.1,29.37 -75.71,56.2 -116.79,86.32l-699.05 521.41z"/>
   <path class="fil2" d="M990.6 2082.79l-1.39 -16.35c-39.67,-17.05 -90.51,-60.4 -124.12,-86.71l-700.72 -526.79c-35,-25.79 -83.83,-65.89 -122.03,-85.15 0,50.74 -6.38,81.03 -8.47,119.37l0 48.05c2.13,40.43 8.69,70.78 8.49,124.23 -0.62,167.27 6.9,1454.31 -2.34,1521.7 -7.35,53.62 -4.09,231.09 10.37,282.13 40.58,143.23 147.17,194.83 282,211.25l421.14 0 2.38 0 2.38 0 2.38 0c44.19,-0.05 88.56,-0.44 132.73,0l82.23 0c15.64,-4.72 16.28,-20.55 15.47,-67.23 -8.53,-488.8 -0.5,-1030.98 -0.5,-1524.5z"/>
   <path class="fil3" d="M42.34 1367.79c38.2,19.26 87.03,59.36 122.03,85.15l700.72 526.79c33.61,26.31 84.45,69.66 124.12,86.71l0.46 -1219.77c-20.5,-14.78 -45.84,-38.57 -68.74,-57.33 -124.3,-101.85 -254.59,-209.41 -404.81,-230.54l-105.3 0c-40.43,5.75 -82.34,18.37 -125.95,39.33 -120.34,57.85 -195.51,142.56 -229.09,287.38 -37.47,161.64 -13.44,312.09 -13.44,482.28z"/>
   <path class="fil4" d="M3243.07 846.67l7.32 1219.61 699.05 -521.41c41.08,-30.12 75.69,-56.95 116.79,-86.32 41.01,-29.29 81.97,-63 124.75,-86.06 0.78,-36.59 7.72,-62.76 8.47,-108.62l0 -205.28c-4.2,-193.78 -37.47,-357.8 -251,-460.46 -47.6,-22.88 -99.11,-35.65 -150.61,-39.33l-63.07 0c-72.86,5.2 -142.41,28.27 -197.11,66.34 -49.78,34.64 -95.26,71.75 -144.95,109.05 -50.74,38.08 -99.95,78.29 -149.64,112.48z"/>
  </g>
 </g>
</svg>
