<?xml version="1.0" encoding="UTF-8"?>
<!DOCTYPE svg PUBLIC "-//W3C//DTD SVG 1.1//EN" "http://www.w3.org/Graphics/SVG/1.1/DTD/svg11.dtd">
<!-- Creator: CorelDRAW 2020 (64 Bit) -->
<svg xmlns="http://www.w3.org/2000/svg" xml:space="preserve" width="42.3332mm" height="42.3332mm" version="1.1" style="shape-rendering:geometricPrecision; text-rendering:geometricPrecision; image-rendering:optimizeQuality; fill-rule:evenodd; clip-rule:evenodd"
viewBox="0 0 4233.32 4233.32"
 xmlns:xlink="http://www.w3.org/1999/xlink"
 xmlns:xodm="http://www.corel.com/coreldraw/odm/2003">
 <defs>
  <style type="text/css">
   <![CDATA[
    .fil0 {fill:#FDFDFD}
   ]]>
  </style>
 </defs>
 <g id="Camada_x0020_1">
  <metadata id="CorelCorpID_0Corel-Layer"/>
  <path class="fil0" d="M25.4 1972.73l0 17.93 0 94.92c0.44,320.79 9.01,542.18 134.24,853.57 77.26,192.12 262.68,503.02 413.85,652.95 19.35,19.18 32.34,29.87 49.39,52.2 51.69,67.73 224.55,197.58 296.57,245.3 74.67,49.46 603.22,407.15 681.3,208.81 30.39,-77.17 -0.56,-350.3 -0.56,-449.29 -48.27,1.08 -70.27,16.94 -126.99,16.94 -442.71,0 -466.48,-53.78 -634.87,-381.13l-74.34 -103.46c-59.62,-59.47 -164.67,-104.29 -171.33,-184.28 98.94,0 111.52,-24.42 228.37,42.57 185.29,106.22 260.59,389.23 474.37,389.23 113.13,0 186.85,-4.49 293.32,-45.34 58.27,-22.36 4.26,-47.7 70.58,-174.95 20.81,-39.93 43.59,-58.78 63.64,-98.71 51.19,-101.94 -113.33,29.18 -470,-155 -121.19,-62.58 -255.75,-190.49 -331.84,-311.64 -161.76,-257.55 -177.52,-857.7 29.52,-1083.13 13.12,-14.29 56.91,-38.93 56.91,-53.16 0,-164.87 -91.84,-123.84 -16.93,-423.33 9.91,-39.63 30.54,-104 33.86,-143.93 269.82,0 492.87,211.66 601.13,211.66 223.2,0 355.78,-124.14 879.93,-16.33 18.91,3.89 91,24.8 102.21,24.8 90.86,0 317.08,-220.13 601.13,-220.13 9.47,113.87 97.5,269.3 47.77,420.3 -98.4,298.76 84.41,63.23 164.01,527.85 52.05,303.84 -16.06,697.62 -226.6,908.16 -135.76,135.76 -297.24,203.62 -486.3,250.29 -31.75,7.84 -65.62,17.11 -99.97,18.57l-118.58 8.42c28.28,121.38 152.4,74.2 152.4,635 0,70.07 -27.96,367.39 6.36,408.51 10.6,12.71 76.69,48.69 95.24,48.69 100.05,0 452.53,-184.74 563.75,-265.98 323.59,-236.38 592.52,-534.29 743.8,-915.67 142.48,-359.18 156.15,-502.2 157.18,-810.85l0 -166.5c0,-254.61 -101.38,-564.99 -208.81,-781.78 -27.87,-56.24 -57.72,-104.27 -89.12,-156.42 -45.6,-75.74 -151.51,-227.56 -212.23,-287.29 -26.09,-25.66 -34.01,-42.65 -59.06,-67.95 -391.18,-395.36 -899.65,-645.42 -1479.71,-645.42 -355.11,0 -628.93,48.07 -903.01,180.72l-163.74 81.79c-111.88,57.77 -197.61,117.68 -294.43,196.63 -27.26,22.23 -38.22,29.59 -63.29,55.25 -26.03,26.62 -42.6,34.66 -67.94,59.05 -236.04,227.2 -474.94,593.51 -563.2,910 -34.32,123.06 -77.98,269.63 -77.98,421.56z"/>
  <path class="fil0" d="M25.4 1972.73l0 17.93 0 94.92c0.44,320.79 9.01,542.18 134.24,853.57 77.26,192.12 262.68,503.02 413.85,652.95 19.35,19.18 32.34,29.87 49.39,52.2 51.69,67.73 224.55,197.58 296.57,245.3 74.67,49.46 603.22,407.15 681.3,208.81 30.39,-77.17 -0.56,-350.3 -0.56,-449.29 -48.27,1.08 -70.27,16.94 -126.99,16.94 -442.71,0 -466.48,-53.78 -634.87,-381.13l-74.34 -103.46c-59.62,-59.47 -164.67,-104.29 -171.33,-184.28 98.94,0 111.52,-24.42 228.37,42.57 185.29,106.22 260.59,389.23 474.37,389.23 113.13,0 186.85,-4.49 293.32,-45.34 58.27,-22.36 4.26,-47.7 70.58,-174.95 20.81,-39.93 43.59,-58.78 63.64,-98.71 51.19,-101.94 -113.33,29.18 -470,-155 -121.19,-62.58 -255.75,-190.49 -331.84,-311.64 -161.76,-257.55 -177.52,-857.7 29.52,-1083.13 13.12,-14.29 56.91,-38.93 56.91,-53.16 0,-164.87 -91.84,-123.84 -16.93,-423.33 9.91,-39.63 30.54,-104 33.86,-143.93 269.82,0 492.87,211.66 601.13,211.66 223.2,0 355.78,-124.14 879.93,-16.33 18.91,3.89 91,24.8 102.21,24.8 90.86,0 317.08,-220.13 601.13,-220.13 9.47,113.87 97.5,269.3 47.77,420.3 -98.4,298.76 84.41,63.23 164.01,527.85 52.05,303.84 -16.06,697.62 -226.6,908.16 -135.76,135.76 -297.24,203.62 -486.3,250.29 -31.75,7.84 -65.62,17.11 -99.97,18.57l-118.58 8.42c28.28,121.38 152.4,74.2 152.4,635 0,70.07 -27.96,367.39 6.36,408.51 10.6,12.71 76.69,48.69 95.24,48.69 100.05,0 452.53,-184.74 563.75,-265.98 323.59,-236.38 592.52,-534.29 743.8,-915.67 142.48,-359.18 156.15,-502.2 157.18,-810.85l0 -166.5c0,-254.61 -101.38,-564.99 -208.81,-781.78 -27.87,-56.24 -57.72,-104.27 -89.12,-156.42 -45.6,-75.74 -151.51,-227.56 -212.23,-287.29 -26.09,-25.66 -34.01,-42.65 -59.06,-67.95 -391.18,-395.36 -899.65,-645.42 -1479.71,-645.42 -355.11,0 -628.93,48.07 -903.01,180.72l-163.74 81.79c-111.88,57.77 -197.61,117.68 -294.43,196.63 -27.26,22.23 -38.22,29.59 -63.29,55.25 -26.03,26.62 -42.6,34.66 -67.94,59.05 -236.04,227.2 -474.94,593.51 -563.2,910 -34.32,123.06 -77.98,269.63 -77.98,421.56z"/>
 </g>
</svg>
