<?xml version="1.0" encoding="UTF-8"?>
<!DOCTYPE svg PUBLIC "-//W3C//DTD SVG 1.1//EN" "http://www.w3.org/Graphics/SVG/1.1/DTD/svg11.dtd">
<!-- Creator: CorelDRAW 2020 (64 Bit) -->
<svg xmlns="http://www.w3.org/2000/svg" xml:space="preserve" width="42.3332mm" height="42.3332mm" version="1.1" style="shape-rendering:geometricPrecision; text-rendering:geometricPrecision; image-rendering:optimizeQuality; fill-rule:evenodd; clip-rule:evenodd"
viewBox="0 0 4233.32 4233.32"
 xmlns:xlink="http://www.w3.org/1999/xlink"
 xmlns:xodm="http://www.corel.com/coreldraw/odm/2003">
 <defs>
  <style type="text/css">
   <![CDATA[
    .fil1 {fill:#C30091}
    .fil4 {fill:#D90053}
    .fil3 {fill:#E90021}
    .fil6 {fill:#F20B0C}
    .fil7 {fill:#F41B0B}
    .fil5 {fill:#F85C10}
    .fil0 {fill:#FA8215}
    .fil2 {fill:#FEFDFD}
   ]]>
  </style>
 </defs>
 <g id="Camada_x0020_1">
  <metadata id="CorelCorpID_0Corel-Layer"/>
  <g id="_1476535597232">
   <path class="fil0" d="M-8.47 4241.79l3244.04 0c-14.04,-43.04 -51.03,-59.26 -83.11,-87.5l-576.9 -579.35c13.5,-0.16 17.79,0.84 31.27,-2.6 20.84,-5.32 7.06,0 19.77,-10.02 -158.44,-5.27 -333,1.25 -493.01,2.88 -418.39,4.26 -915.62,50.18 -1211.58,-228.74 -184.29,-173.69 -238.48,-389.44 -252.13,-720.04 -13.39,-324.07 5.69,-635.27 -0.78,-956.3 -48.03,-16.97 -269.83,-264.46 -339.54,-321.77 -71.68,-58.93 -278.57,-303.35 -338.03,-323.73l0 3227.17z"/>
   <path class="fil1" d="M2508.59 667.34c373.95,15.78 609.45,33.03 816.26,241.15 209.94,211.27 226.49,439.01 241.27,816.51 47.73,28.15 121.48,112.07 165.21,156.96 57.68,59.22 109.97,111.82 167.99,170.75 55.3,56.17 290.37,305.24 342.47,329.16l0 -2390.34 -2398.95 0c31.12,64.51 268.02,280.14 335.97,344.18 60.11,56.65 111.78,103.41 172.44,166.54 48.22,50.19 118.97,107.72 157.34,165.09z"/>
   <path class="fil2" d="M927.93 1944.25c5.61,-199.74 -9.5,-482.35 45.13,-658.11 25.11,-80.79 90.35,-162.03 139.61,-207.66 56.16,-52.04 136.25,-111.39 242.42,-113.24 81.92,-61.95 794.55,-41.58 947.83,-38.88 331.43,5.83 640.9,-23.26 835,169.03 190.12,188.35 162.81,499.65 168.47,826.46 2.69,155.31 24.96,871.04 -37.99,956.52 -4.94,130.09 -121.44,272.12 -192.86,315.49 -39.62,24.06 -75.88,48.04 -116.5,61.16 -117.49,37.98 -511.99,68.58 -641.95,43.75 -53.06,31.7 -569.66,4.96 -674.55,3.19 -222.14,-3.76 -424.98,-36.16 -538.21,-156.29 -133.64,-141.78 -166.66,-269.44 -172.44,-520.96 -5.19,-225.56 -14.56,-455.17 -3.96,-680.46zm-258.83 -284.13c6.47,321.03 -12.61,632.23 0.78,956.3 13.65,330.6 67.84,546.35 252.13,720.04 295.96,278.92 793.19,233 1211.58,228.74 160.01,-1.63 334.57,-8.15 493.01,-2.88 178.88,-0.85 409.46,-29.61 556.61,-133.39 147.68,-104.17 242.25,-181.55 315.71,-387.26 107.35,-300.57 61.18,-959.61 67.2,-1316.67 -14.78,-377.5 -31.33,-605.24 -241.27,-816.51 -206.81,-208.12 -442.31,-225.37 -816.26,-241.15 -357.62,5.32 -1056.32,-41.51 -1341,76.99 -97.22,40.46 -151.35,75.01 -221.63,133.9 -70.37,58.95 -100.33,114.75 -159.57,196.09 -87.7,120.41 -122.73,429.62 -117.29,585.8z"/>
   <path class="fil3" d="M-8.47 1014.62c59.46,20.38 266.35,264.8 338.03,323.73 69.71,57.31 291.51,304.8 339.54,321.77 -5.44,-156.18 29.59,-465.39 117.29,-585.8 59.24,-81.34 89.2,-137.14 159.57,-196.09 70.28,-58.89 124.41,-93.44 221.63,-133.9 284.68,-118.5 983.38,-71.67 1341,-76.99 -38.37,-57.37 -109.12,-114.9 -157.34,-165.09 -60.66,-63.13 -112.33,-109.89 -172.44,-166.54 -67.95,-64.04 -304.85,-279.67 -335.97,-344.18l-1851.31 0 0 1023.09z"/>
   <path class="fil3" d="M2626.6 3562.32c-12.71,10.02 1.07,4.7 -19.77,10.02 -13.48,3.44 -17.77,2.44 -31.27,2.6l576.9 579.35c32.08,28.24 69.07,44.46 83.11,87.5l1006.22 0 0 -1859.92c-52.1,-23.92 -287.17,-272.99 -342.47,-329.16 -58.02,-58.93 -110.31,-111.53 -167.99,-170.75 -43.73,-44.89 -117.48,-128.81 -165.21,-156.96 -6.02,357.06 40.15,1016.1 -67.2,1316.67 -73.46,205.71 -168.03,283.09 -315.71,387.26 -147.15,103.78 -377.73,132.54 -556.61,133.39z"/>
   <path class="fil4" d="M2851.99 1173.35c218.11,-62.27 306.89,282.98 80.08,336.02 -113.15,26.46 -191.73,-35.52 -208.52,-126.39 -19.02,-103.01 31.34,-181.91 128.44,-209.63zm-1496.9 -208.11c46.22,9.33 93.4,73.15 124.49,103.63 40.53,39.73 74.79,73.52 115.17,113.44 44.24,43.73 208.39,195.4 226.6,242.52 184.65,-25.1 249.87,-88.65 469.55,-32.58 266.66,68.07 478.11,267.21 547.92,535.54 57.04,219.22 5.64,308.82 -31.25,475.36 64.38,35.41 189.5,171.21 244.02,226.35l171.84 175.31c26.83,26.09 44.82,28.07 44.97,73.56 62.95,-85.48 40.68,-801.21 37.99,-956.52 -5.66,-326.81 21.65,-638.11 -168.47,-826.46 -194.1,-192.29 -503.57,-163.2 -835,-169.03 -153.28,-2.7 -865.91,-23.07 -947.83,38.88z"/>
   <path class="fil2" d="M2043.98 1640.83c444.04,-75.47 717.58,457.73 455.14,773.48 -62.28,74.93 -187.07,171.06 -298.87,182.79 -474.97,49.82 -714.16,-443.09 -467.9,-780.19 58.38,-79.92 181.8,-154.01 311.63,-176.08zm-222.63 -216c-38.43,31.42 -77.01,47.01 -118.43,74.77 -41.39,27.73 -70.08,49.79 -103.49,82.87 -377.25,373.62 -170.49,778.7 -169.56,846.55 33.09,26.08 50.67,75.14 76.55,111.74 146.5,207.14 241.04,189.97 297.56,263.08 45.03,0.31 103.56,24.09 149.37,35.17 52.74,12.76 112.28,22.76 171.65,23.31 115.92,1.06 223.8,-30.97 310.21,-71.93 87.93,-41.68 162.43,-103.13 219.42,-161.36 72.86,-74.43 96.66,-141.85 152.94,-225.88 36.89,-166.54 88.29,-256.14 31.25,-475.36 -69.81,-268.33 -281.26,-467.47 -547.92,-535.54 -219.68,-56.07 -284.9,7.48 -469.55,32.58z"/>
   <path class="fil5" d="M2317.09 3298.77c-52.02,-15.98 -70.69,-55.73 -130.88,-117.19l-382.23 -377.74c-56.52,-73.11 -151.06,-55.94 -297.56,-263.08 -25.88,-36.6 -43.46,-85.66 -76.55,-111.74 -12.18,2.81 -18.15,-13.12 -51.74,-47.6l-309.28 -317.54c-35.78,-34.72 -94.39,-102.63 -140.92,-119.63 -10.6,225.29 -1.23,454.9 3.96,680.46 5.78,251.52 38.8,379.18 172.44,520.96 113.23,120.13 316.07,152.53 538.21,156.29 104.89,1.77 621.49,28.51 674.55,-3.19z"/>
   <path class="fil6" d="M2043.98 1640.83c-129.83,22.07 -253.25,96.16 -311.63,176.08 -246.26,337.1 -7.07,830.01 467.9,780.19 111.8,-11.73 236.59,-107.86 298.87,-182.79 262.44,-315.75 -11.1,-848.95 -455.14,-773.48z"/>
   <path class="fil7" d="M1803.98 2803.84l382.23 377.74c60.19,61.46 78.86,101.21 130.88,117.19 129.96,24.83 524.46,-5.77 641.95,-43.75 40.62,-13.12 76.88,-37.1 116.5,-61.16 71.42,-43.37 187.92,-185.4 192.86,-315.49 -0.15,-45.49 -18.14,-47.47 -44.97,-73.56l-171.84 -175.31c-54.52,-55.14 -179.64,-190.94 -244.02,-226.35 -56.28,84.03 -80.08,151.45 -152.94,225.88 -56.99,58.23 -131.49,119.68 -219.42,161.36 -86.41,40.96 -194.29,72.99 -310.21,71.93 -59.37,-0.55 -118.91,-10.55 -171.65,-23.31 -45.81,-11.08 -104.34,-34.86 -149.37,-35.17z"/>
   <path class="fil7" d="M927.93 1944.25c46.53,17 105.14,84.91 140.92,119.63l309.28 317.54c33.59,34.48 39.56,50.41 51.74,47.6 -0.93,-67.85 -207.69,-472.93 169.56,-846.55 33.41,-33.08 62.1,-55.14 103.49,-82.87 41.42,-27.76 80,-43.35 118.43,-74.77 -18.21,-47.12 -182.36,-198.79 -226.6,-242.52 -40.38,-39.92 -74.64,-73.71 -115.17,-113.44 -31.09,-30.48 -78.27,-94.3 -124.49,-103.63 -106.17,1.85 -186.26,61.2 -242.42,113.24 -49.26,45.63 -114.5,126.87 -139.61,207.66 -54.63,175.76 -39.52,458.37 -45.13,658.11z"/>
   <path class="fil2" d="M2851.99 1173.35c-97.1,27.72 -147.46,106.62 -128.44,209.63 16.79,90.87 95.37,152.85 208.52,126.39 226.81,-53.04 138.03,-398.29 -80.08,-336.02z"/>
  </g>
 </g>
</svg>
