<?xml version="1.0" encoding="UTF-8"?>
<!DOCTYPE svg PUBLIC "-//W3C//DTD SVG 1.1//EN" "http://www.w3.org/Graphics/SVG/1.1/DTD/svg11.dtd">
<!-- Creator: CorelDRAW 2020 (64 Bit) -->
<svg xmlns="http://www.w3.org/2000/svg" xml:space="preserve" width="42.3332mm" height="42.3332mm" version="1.1" style="shape-rendering:geometricPrecision; text-rendering:geometricPrecision; image-rendering:optimizeQuality; fill-rule:evenodd; clip-rule:evenodd"
viewBox="0 0 4233.32 4233.32"
 xmlns:xlink="http://www.w3.org/1999/xlink"
 xmlns:xodm="http://www.corel.com/coreldraw/odm/2003">
 <defs>
  <style type="text/css">
   <![CDATA[
    .fil0 {fill:#0097D2}
    .fil1 {fill:#FDFDFD}
   ]]>
  </style>
 </defs>
 <g id="Camada_x0020_1">
  <metadata id="CorelCorpID_0Corel-Layer"/>
  <g id="_1476683026112">
   <path class="fil0" d="M961.5 3212.55c-9.18,-144.14 -1.53,-313.92 -1.72,-460.89l-1 -931.33c-0.2,-235.8 -53.5,-203.14 251.95,-203.32 302.59,-0.19 248.4,-33.49 248.76,220.25 0.22,159.64 10.62,1319.87 -2.14,1373.74 -62.05,28.39 -416,27.23 -495.85,1.55zm1288.23 -1406.82c29.17,-16.67 25.12,-20.19 51.11,-46.79 131.81,-134.96 262.63,-184.1 467.82,-177.57 556.8,17.73 539.62,509.58 547.16,932.29 2.86,160.12 28.48,564.72 -1.85,696.18 -2.03,1.05 -4.75,2.31 -6.2,2.9 -41.09,16.42 -68.6,12.52 -115.82,14.34 -42.58,1.64 -84.36,3.3 -127.03,3.35 -224.31,0.23 -247.96,12.02 -255.12,-55.15 -1.32,-12.37 -1.3,-34.2 -2.06,-47.98 -12.28,-222.02 9.14,-416.79 7.62,-638.11 -1.65,-241.33 -24.99,-476.15 -292.55,-457.77 -426.05,29.26 -183.54,848.72 -265.29,1191.3l-377.93 1.93c-18.12,0.1 -99.96,5.59 -111.54,-8.86 -27.59,-77.8 -15.78,-1437.03 2.96,-1588.72 99.47,-11.44 380.09,-26.22 468.29,3.6l10.43 175.06zm-1059.52 -972.98c168.89,-24.41 296.11,117.01 307.65,268.22 13.64,178.75 -105.7,301.38 -270.03,312.97 -353.44,24.92 -459.2,-520.25 -37.62,-581.19zm-1114.01 -307.82l0 3225.79c0,143.55 47.08,237.3 124.86,306.94 67.13,60.08 206.11,99.46 332.34,99.46l3200.39 0c282.13,0 423.33,-160.38 423.33,-457.2l0 -3200.39c0,-282.21 -160.3,-423.33 -457.2,-423.33l-3200.39 0c-285.31,0 -423.33,171.49 -423.33,448.73z"/>
   <path class="fil1" d="M2249.73 1805.73l-10.43 -175.06c-88.2,-29.82 -368.82,-15.04 -468.29,-3.6 -18.74,151.69 -30.55,1510.92 -2.96,1588.72 11.58,14.45 93.42,8.96 111.54,8.86l377.93 -1.93c81.75,-342.58 -160.76,-1162.04 265.29,-1191.3 267.56,-18.38 290.9,216.44 292.55,457.77 1.52,221.32 -19.9,416.09 -7.62,638.11 0.76,13.78 0.74,35.61 2.06,47.98 7.16,67.17 30.81,55.38 255.12,55.15 42.67,-0.05 84.45,-1.71 127.03,-3.35 47.22,-1.82 74.73,2.08 115.82,-14.34 1.45,-0.59 4.17,-1.85 6.2,-2.9 30.33,-131.46 4.71,-536.06 1.85,-696.18 -7.54,-422.71 9.64,-914.56 -547.16,-932.29 -205.19,-6.53 -336.01,42.61 -467.82,177.57 -25.99,26.6 -21.94,30.12 -51.11,46.79z"/>
   <path class="fil1" d="M961.5 3212.55c79.85,25.68 433.8,26.84 495.85,-1.55 12.76,-53.87 2.36,-1214.1 2.14,-1373.74 -0.36,-253.74 53.83,-220.44 -248.76,-220.25 -305.45,0.18 -252.15,-32.48 -251.95,203.32l1 931.33c0.19,146.97 -7.46,316.75 1.72,460.89z"/>
   <path class="fil1" d="M1190.21 832.75c-421.58,60.94 -315.82,606.11 37.62,581.19 164.33,-11.59 283.67,-134.22 270.03,-312.97 -11.54,-151.21 -138.76,-292.63 -307.65,-268.22z"/>
  </g>
 </g>
</svg>
