<?xml version="1.0" encoding="UTF-8"?>
<!DOCTYPE svg PUBLIC "-//W3C//DTD SVG 1.1//EN" "http://www.w3.org/Graphics/SVG/1.1/DTD/svg11.dtd">
<!-- Creator: CorelDRAW 2020 (64 Bit) -->
<svg xmlns="http://www.w3.org/2000/svg" xml:space="preserve" width="42.3332mm" height="42.3332mm" version="1.1" style="shape-rendering:geometricPrecision; text-rendering:geometricPrecision; image-rendering:optimizeQuality; fill-rule:evenodd; clip-rule:evenodd"
viewBox="0 0 4233.32 4233.32"
 xmlns:xlink="http://www.w3.org/1999/xlink"
 xmlns:xodm="http://www.corel.com/coreldraw/odm/2003">
 <defs>
  <style type="text/css">
   <![CDATA[
    .fil0 {fill:#28EE63}
    .fil1 {fill:#FCFCFC}
   ]]>
  </style>
 </defs>
 <g id="Camada_x0020_1">
  <metadata id="CorelCorpID_0Corel-Layer"/>
  <g id="_1476535536032">
   <path class="fil0" d="M3072.54 2577.66c6.11,771.74 -1049.26,346.04 -1301.94,86.85 -205.24,-210.52 -900.35,-837.62 -527.1,-1357.79 59.69,-83.17 213.1,-204.41 351.85,-115.23 66.59,42.8 129.84,255.5 164.02,354.93 81.78,237.92 -21.04,205.56 -108.61,353.7 -46.66,78.96 106.54,246.19 158.45,310.54 104.78,129.96 283.45,287.83 451.1,344.4 160.61,54.19 147.92,-69.49 286.79,-186.61 96.18,-81.11 491.5,178.7 525.44,209.21zm-2415.74 1063.71c164.85,-21.05 553,-153.85 693.31,-133.07 134.07,19.84 237.93,142.5 636.95,181.5 697.26,68.15 1305.55,-335.55 1558.9,-897.93 534.87,-1187.36 -347.32,-2337.99 -1527.76,-2277.6 -492.22,25.18 -889.02,301.58 -1101.52,546.87 -256.65,296.24 -443.13,704.02 -374.45,1251.9 49.35,393.89 165.23,446.95 209.3,610.1 41.14,152.35 -84.75,536.44 -94.73,718.23z"/>
   <path class="fil1" d="M656.8 3641.37c9.98,-181.79 135.87,-565.88 94.73,-718.23 -44.07,-163.15 -159.95,-216.21 -209.3,-610.1 -68.68,-547.88 117.8,-955.66 374.45,-1251.9 212.5,-245.29 609.3,-521.69 1101.52,-546.87 1180.44,-60.39 2062.63,1090.24 1527.76,2277.6 -253.35,562.38 -861.64,966.08 -1558.9,897.93 -399.02,-39 -502.88,-161.66 -636.95,-181.5 -140.31,-20.78 -528.46,112.02 -693.31,133.07zm-470.54 -1467.08c0,154.96 39,350.39 76.43,476.75 147.43,497.54 203.31,225.47 62.88,930.27 -20.11,100.85 -70.16,388.61 -70.16,483.04 84.15,0 228.33,-41.58 310.23,-58.56 193.69,-40.17 411.8,-100.34 613.25,-135.93 191.63,-33.86 367.13,118.42 749.23,158.31 30.84,3.21 60.23,0.5 90.89,1.32 51.63,1.38 53.63,10.6 91.89,10.6l344.26 -34.85c261.05,-44.1 579.13,-175.48 793.53,-335.89 74.48,-55.74 143.22,-107.45 207.75,-172.57 329.87,-332.85 590.62,-811.28 590.62,-1299.44 0,-140 -27.81,-525.24 -77.28,-648.78 -106.94,-267.07 -139.48,-386.29 -336.02,-632.06 -41.04,-51.32 -67.03,-81.17 -114.03,-127.98 -204.32,-203.5 -273.98,-272.28 -548.13,-419.97 -197.24,-106.25 -550.43,-199.57 -780.03,-199.57 -374.48,0 -608.42,38.4 -922.04,195.87 -211.8,106.35 -394.84,250.89 -556.01,412.06 -84.12,84.12 -148.4,156.2 -213.88,258.63 -114.33,178.83 -159.31,378.44 -232.13,493.95 -62.83,99.68 -24.86,93.43 -36.81,205.22 -14.26,133.52 -44.44,290.35 -44.44,439.58z"/>
   <path class="fil1" d="M3072.54 2577.66c-33.94,-30.51 -429.26,-290.32 -525.44,-209.21 -138.87,117.12 -126.18,240.8 -286.79,186.61 -167.65,-56.57 -346.32,-214.44 -451.1,-344.4 -51.91,-64.35 -205.11,-231.58 -158.45,-310.54 87.57,-148.14 190.39,-115.78 108.61,-353.7 -34.18,-99.43 -97.43,-312.13 -164.02,-354.93 -138.75,-89.18 -292.16,32.06 -351.85,115.23 -373.25,520.17 321.86,1147.27 527.1,1357.79 252.68,259.19 1308.05,684.89 1301.94,-86.85z"/>
  </g>
 </g>
</svg>
