<?xml version="1.0" standalone="no"?>
<!DOCTYPE svg PUBLIC "-//W3C//DTD SVG 20010904//EN"
 "http://www.w3.org/TR/2001/REC-SVG-20010904/DTD/svg10.dtd">
<svg version="1.0" xmlns="http://www.w3.org/2000/svg"
 width="500.000000pt" height="500.000000pt" viewBox="0 0 500.000000 500.000000"
 preserveAspectRatio="xMidYMid meet">

<g transform="translate(0.000000,500.000000) scale(0.100000,-0.100000)"
fill="#000000" stroke="none">
<path d="M2330 4390 c-236 -30 -479 -132 -666 -281 -138 -109 -286 -295 -371
-462 -54 -108 -110 -289 -129 -417 -46 -317 45 -688 234 -956 106 -149 297
-326 423 -390 l49 -24 0 -580 c0 -421 3 -586 12 -605 26 -57 86 -43 220 52
135 96 388 263 398 263 8 0 268 -172 445 -293 59 -40 117 -61 145 -52 44 14
45 22 45 580 0 292 1 553 3 582 l2 52 63 37 c200 117 415 356 516 575 90 195
125 360 125 584 0 184 -15 278 -70 437 -160 462 -555 800 -1039 888 -84 15
-315 21 -405 10z m404 -160 c372 -72 681 -311 847 -655 165 -343 167 -700 6
-1036 -158 -331 -413 -545 -774 -650 -104 -31 -115 -32 -308 -33 -193 -1 -204
0 -300 28 -340 99 -596 295 -757 581 -129 228 -180 544 -128 795 53 261 147
446 314 618 198 205 417 316 716 365 78 13 286 6 384 -13z m-54 -2717 l0 -193
44 0 c24 0 87 11 140 25 53 14 103 25 111 25 13 0 15 -36 15 -255 0 -140 -3
-255 -6 -255 -11 0 -52 25 -189 115 -174 114 -277 175 -296 175 -17 0 -75 -35
-268 -161 -136 -89 -202 -129 -216 -129 -3 0 -5 115 -5 255 0 226 2 255 16
255 9 0 51 -9 94 -20 43 -11 106 -24 139 -28 l61 -9 0 196 0 196 180 0 180 0
0 -192z"/>
<path d="M2350 4010 c-73 -11 -224 -62 -302 -101 -227 -114 -394 -318 -484
-589 -26 -81 -28 -94 -28 -270 0 -176 2 -189 28 -270 120 -363 407 -625 750
-686 475 -83 933 175 1101 621 38 101 55 201 55 330 0 260 -85 480 -259 666
-179 194 -402 294 -676 303 -71 3 -155 1 -185 -4z m356 -159 c256 -66 469
-256 563 -501 106 -275 67 -566 -107 -795 -75 -100 -177 -182 -296 -240 -144
-69 -195 -80 -386 -80 l-165 0 -92 36 c-116 45 -188 89 -268 162 -281 256
-358 649 -192 982 84 169 200 284 369 369 132 66 213 83 388 85 82 0 135 -5
186 -18z"/>
</g>
</svg>
