<?xml version="1.0" encoding="UTF-8"?>
<!DOCTYPE svg PUBLIC "-//W3C//DTD SVG 1.1//EN" "http://www.w3.org/Graphics/SVG/1.1/DTD/svg11.dtd">
<!-- Creator: CorelDRAW 2020 (64 Bit) -->
<svg xmlns="http://www.w3.org/2000/svg" xml:space="preserve" width="42.3332mm" height="42.3332mm" version="1.1" style="shape-rendering:geometricPrecision; text-rendering:geometricPrecision; image-rendering:optimizeQuality; fill-rule:evenodd; clip-rule:evenodd"
viewBox="0 0 4233.32 4233.32"
 xmlns:xlink="http://www.w3.org/1999/xlink"
 xmlns:xodm="http://www.corel.com/coreldraw/odm/2003">
 <defs>
  <style type="text/css">
   <![CDATA[
    .fil0 {fill:gold;fill-rule:nonzero}
   ]]>
  </style>
 </defs>
 <g id="Camada_x0020_1">
  <metadata id="CorelCorpID_0Corel-Layer"/>
  <g id="_1406532272432">
   <g>
    <path class="fil0" d="M1940.05 150.52c-247.93,31.51 -503.22,138.67 -699.67,295.2 -144.97,114.51 -300.46,309.92 -389.76,485.36 -56.73,113.46 -115.56,303.61 -135.52,438.08 -48.32,333.03 47.28,722.78 245.83,1004.33 111.36,156.53 312.02,342.48 444.39,409.72l51.48 25.21 0 609.32c0,442.29 3.15,615.63 12.6,635.59 27.31,59.88 90.35,45.17 231.12,-54.63 141.83,-100.85 407.62,-276.29 418.12,-276.29 8.41,0 281.55,180.69 467.5,307.81 61.98,42.02 122.92,64.08 152.33,54.63 46.23,-14.71 47.28,-23.12 47.28,-609.33 0,-306.76 1.05,-580.95 3.15,-611.42l2.1 -54.63 66.19 -38.87c210.11,-122.91 435.98,-374 542.08,-604.07 94.55,-204.86 131.32,-378.2 131.32,-613.52 0,-193.3 -15.76,-292.05 -73.54,-459.09 -168.09,-485.36 -583.06,-840.45 -1091.52,-932.9 -88.25,-15.76 -330.93,-22.06 -425.48,-10.5zm424.42 168.08c390.81,75.64 715.43,326.73 889.83,688.12 173.34,360.34 175.44,735.38 6.3,1088.37 -165.99,347.73 -433.88,572.55 -813.13,682.86 -109.26,32.57 -120.81,33.62 -323.57,34.67 -202.76,1.05 -214.32,0 -315.17,-29.41 -357.19,-104.01 -626.13,-309.92 -795.27,-610.38 -135.52,-239.52 -189.1,-571.5 -134.47,-835.19 55.68,-274.19 154.43,-468.54 329.87,-649.24 208.01,-215.36 438.08,-331.98 752.2,-383.45 81.94,-13.66 300.46,-6.31 403.41,13.65zm-56.73 2854.36l0 202.76 46.23 0c25.21,0 91.4,-11.56 147.08,-26.26 55.68,-14.71 108.2,-26.26 116.61,-26.26 13.65,0 15.76,37.82 15.76,267.89 0,147.07 -3.15,267.89 -6.31,267.89 -11.56,0 -54.63,-26.27 -198.55,-120.82 -182.8,-119.76 -291.01,-183.84 -310.97,-183.84 -17.86,0 -78.79,36.77 -281.54,169.14 -142.88,93.5 -212.22,135.52 -226.92,135.52 -3.15,0 -5.26,-120.82 -5.26,-267.89 0,-237.43 2.11,-267.89 16.81,-267.89 9.46,0 53.58,9.45 98.75,21.01 45.18,11.56 111.36,25.21 146.03,29.41l64.08 9.46 0 -205.91 0 -205.91 189.1 0 189.1 0 0 201.71 0 -0.01z"/>
    <path class="fil0" d="M1961.06 549.73c-76.69,11.56 -235.32,65.13 -317.27,106.11 -238.47,119.76 -413.91,334.07 -508.46,618.77 -27.32,85.1 -29.42,98.75 -29.42,283.65 0,184.9 2.1,198.56 29.42,283.65 126.06,381.35 427.57,656.6 787.91,720.68 499.01,87.2 980.17,-183.84 1156.66,-652.39 39.92,-106.11 57.78,-211.16 57.78,-346.68 0,-273.15 -89.29,-504.27 -272.09,-699.67 -188.05,-203.81 -422.32,-308.87 -710.18,-318.32 -74.59,-3.15 -162.83,-1.05 -194.35,4.2zm374 167.03c268.94,69.34 492.71,268.95 591.46,526.33 111.36,288.91 70.39,594.62 -112.41,835.19 -78.79,105.06 -185.95,191.21 -310.96,252.14 -151.28,72.49 -204.86,84.04 -405.51,84.04l-173.35 0 -96.65 -37.82c-121.86,-47.27 -197.5,-93.5 -281.55,-170.19 -295.2,-268.94 -376.09,-681.81 -201.7,-1031.64 88.24,-177.55 210.11,-298.36 387.65,-387.66 138.68,-69.33 223.77,-87.2 407.62,-89.3 86.15,0 141.83,5.26 195.4,18.91l0 0z"/>
   </g>
  </g>
 </g>
</svg>
