<?xml version="1.0" encoding="UTF-8"?>
<!DOCTYPE svg PUBLIC "-//W3C//DTD SVG 1.1//EN" "http://www.w3.org/Graphics/SVG/1.1/DTD/svg11.dtd">
<!-- Creator: CorelDRAW 2020 (64 Bit) -->
<svg xmlns="http://www.w3.org/2000/svg" xml:space="preserve" width="42.3332mm" height="42.3332mm" version="1.1" style="shape-rendering:geometricPrecision; text-rendering:geometricPrecision; image-rendering:optimizeQuality; fill-rule:evenodd; clip-rule:evenodd"
viewBox="0 0 4233.32 4233.32"
 xmlns:xlink="http://www.w3.org/1999/xlink"
 xmlns:xodm="http://www.corel.com/coreldraw/odm/2003">
 <defs>
  <style type="text/css">
   <![CDATA[
    .fil0 {fill:#FEFEFE}
   ]]>
  </style>
 </defs>
 <g id="Camada_x0020_1">
  <metadata id="CorelCorpID_0Corel-Layer"/>
  <g id="_1406448650128">
   <path class="fil0" d="M2133.59 2108.19c0,101.65 49.75,31.82 177.51,110.35 28.54,17.54 50.4,35.47 69.9,65.57 98.04,151.29 107.75,49.87 306.49,-223.15l176.38 -272.36c14.08,-23.99 14.02,-18.48 14.78,-52.95l330.2 0 -8.46 1320.8c-373.12,0 -718.9,8.47 -1092.2,8.47l-1066.8 0 -12.96 -255.68c3.72,-82.19 9.25,-112.1 0.65,-199.05 -13.23,-133.65 -4.62,-698.13 -4.62,-874.54l1346.2 0c-30.42,45.42 -237.07,338.94 -237.07,372.54zm-812.8 -643.47l448.73 0c3.52,42.24 16.43,19.99 7.49,50.4 -0.01,0.01 -5.62,9.55 -7.49,17.34l-253.99 8.46c-77,0 -119.17,-8.46 -194.74,-8.46l0 -67.74zm-186.26 0l67.73 0c3.27,39.32 -9.08,14.81 16.93,33.87 -18.13,27.08 -13.9,5.93 -16.93,42.33l-67.73 0c-3.28,-39.32 9.08,-14.81 -16.94,-33.86 18.14,-27.08 13.91,-5.93 16.94,-42.34zm795.86 84.67c-35.34,-23.67 -31.22,-11.57 -42.33,-59.27 33.28,-38.29 20.93,-26.63 76.2,-25.4 -1.42,63.44 -17.2,61.92 -33.87,84.67zm533.4 677.33l-16.93 0c-14.49,-54.27 -144.41,-131.28 -194.74,-135.47l439.01 -619.32c73.19,-90.09 134.87,-147.78 209.53,-222.27 32.06,-31.99 83.53,-60.95 121.93,-81.27 -9.33,112.14 -110.8,330.06 -169.71,431.42l-149.32 257.08c-25.78,43.59 -52.3,84.51 -78.9,124.3l-120.87 183.93c-15.43,20.43 -33.41,36.92 -40,61.6zm-8.47 -965.2l-171.63 4.31c-213.88,14.93 -1216.22,-11.91 -1270.68,9.65 -27.57,10.91 -81.68,59.68 -81.68,121.51l0 1642.53c0,44.24 74.29,118.53 118.53,118.53l2133.59 0c44.24,0 118.54,-74.29 118.54,-118.53l0 -1651c0,-40.69 -33.25,-75.03 -57.54,-94.86 -42.28,-34.53 -66.97,-23.67 -137.2,-23.67 4.33,-52 8.47,-24.59 8.47,-110.07 0,-64.96 -54.33,-84.66 -101.6,-84.66 -40.61,0 -110.49,53.43 -136.78,74.88 -138.05,112.62 -62.97,114.41 -360.62,115.66 -12.36,0.06 -15.21,0.38 -24.95,0.19 -18.58,-0.36 -19.25,-4.47 -36.45,-4.47z"/>
   <path class="fil0" d="M1871.12 2599.25c0,215.41 -49.52,355.13 319.19,132.92 330.72,-199.3 113.09,-471.58 -39.79,-471.58 -96.68,0 -163.88,25.72 -218.87,111.32 -28.67,44.63 -60.53,155.09 -60.53,227.34z"/>
   <path class="fil0" d="M1126.06 2015.05c0,19.43 -1.35,50.8 33.87,50.8l863.59 0c46.59,0 46.59,-84.66 0,-84.66l-863.59 0c-19.82,0 -33.87,14.05 -33.87,33.86z"/>
   <path class="fil0" d="M1126.06 2396.05c0,19.43 -1.35,50.8 33.87,50.8l609.59 0c48.64,0 70.03,-93.13 -16.93,-93.13l-567.26 0c-28.54,0 -59.27,14.96 -59.27,42.33z"/>
   <path class="fil0" d="M1126.06 2768.58c0,21.72 -4.53,59.27 33.87,59.27l575.73 0c48.64,0 70.02,-93.13 -16.94,-93.13l-541.86 0c-26,0 -50.8,7.84 -50.8,33.86z"/>
  </g>
 </g>
</svg>
