<?xml version="1.0" standalone="no"?>
<!DOCTYPE svg PUBLIC "-//W3C//DTD SVG 20010904//EN"
 "http://www.w3.org/TR/2001/REC-SVG-20010904/DTD/svg10.dtd">
<svg version="1.0" xmlns="http://www.w3.org/2000/svg"
 width="300.000000pt" height="300.000000pt" viewBox="0 0 300.000000 300.000000"
 preserveAspectRatio="xMidYMid meet">

<g transform="translate(0.000000,300.000000) scale(0.100000,-0.100000)"
fill="#000000" stroke="none">
<path d="M81 1058 c0 -260 4 -510 7 -555 7 -78 9 -85 44 -120 31 -31 47 -38
95 -44 76 -10 2430 -10 2506 0 48 6 64 13 95 44 35 35 37 42 44 120 3 45 7
295 7 555 l1 472 -55 0 -55 0 0 -529 c0 -468 -2 -531 -16 -545 -14 -14 -143
-16 -1276 -16 -1189 0 -1262 1 -1274 18 -11 14 -13 122 -14 545 l0 527 -55 0
-55 0 1 -472z"/>
<path d="M1510 1521 c0 -5 17 -12 38 -15 116 -21 206 -77 265 -166 34 -51 58
-65 88 -49 10 5 54 60 99 122 l80 112 -57 3 c-62 3 -54 8 -119 -73 l-24 -30
-18 22 c-9 12 -34 36 -56 52 -39 31 -39 31 -167 31 -71 0 -129 -4 -129 -9z"/>
<path d="M1452 1378 c-55 -9 -138 -55 -163 -89 -59 -84 -92 -227 -93 -404 0
-193 11 -204 158 -151 194 69 359 191 392 289 25 76 22 135 -14 210 -30 65
-70 105 -127 127 -51 19 -108 26 -153 18z"/>
<path d="M478 1271 c-80 -3 -150 -9 -154 -13 -8 -9 -8 -67 1 -76 3 -3 177 -6
386 -6 364 -1 382 0 395 19 18 24 18 29 -3 53 -17 19 -33 20 -248 24 -126 3
-296 2 -377 -1z"/>
<path d="M404 823 c-74 -3 -82 -6 -88 -26 -3 -12 -3 -31 0 -43 5 -21 13 -22
142 -29 76 -4 240 -5 367 -2 204 5 231 7 242 23 50 69 -17 83 -382 81 -110 -1
-237 -3 -281 -4z"/>
</g>
</svg>
