<?xml version="1.0" standalone="no"?>
<!DOCTYPE svg PUBLIC "-//W3C//DTD SVG 20010904//EN"
 "http://www.w3.org/TR/2001/REC-SVG-20010904/DTD/svg10.dtd">
<svg version="1.0" xmlns="http://www.w3.org/2000/svg"
 width="300.000000pt" height="300.000000pt" viewBox="0 0 300.000000 300.000000"
 preserveAspectRatio="xMidYMid meet">

<g transform="translate(0.000000,300.000000) scale(0.100000,-0.100000)"
fill="#000000" stroke="none">
<path d="M203 1647 c-112 -116 -123 -135 -123 -211 1 -68 33 -107 391 -463
316 -313 359 -352 399 -363 82 -22 156 3 200 68 34 48 35 141 3 192 -12 20
-144 157 -293 304 l-272 269 123 123 c112 113 120 123 98 128 -55 13 -376 66
-396 66 -13 0 -60 -41 -130 -113z"/>
<path d="M1340 1588 c0 -2 -36 -215 -80 -473 -44 -259 -80 -488 -80 -510 0
-64 18 -111 54 -143 81 -71 222 -46 271 48 8 16 32 129 54 252 82 459 132 761
127 765 -2 2 -66 15 -143 28 -76 14 -153 27 -170 30 -18 3 -33 4 -33 3z"/>
<path d="M2179 1133 c-251 -253 -267 -271 -273 -312 -17 -114 27 -189 123
-210 43 -9 59 -8 101 7 43 15 93 60 396 360 190 189 344 345 342 348 -4 3
-401 74 -418 74 -3 0 -125 -120 -271 -267z"/>
</g>
</svg>
