<?xml version="1.0" encoding="UTF-8"?>
<!DOCTYPE svg PUBLIC "-//W3C//DTD SVG 1.1//EN" "http://www.w3.org/Graphics/SVG/1.1/DTD/svg11.dtd">
<!-- Creator: CorelDRAW 2020 (64 Bit) -->
<svg xmlns="http://www.w3.org/2000/svg" xml:space="preserve" width="42.3332mm" height="42.3332mm" version="1.1" style="shape-rendering:geometricPrecision; text-rendering:geometricPrecision; image-rendering:optimizeQuality; fill-rule:evenodd; clip-rule:evenodd"
viewBox="0 0 4233.32 4233.32"
 xmlns:xlink="http://www.w3.org/1999/xlink"
 xmlns:xodm="http://www.corel.com/coreldraw/odm/2003">
 <defs>
  <style type="text/css">
   <![CDATA[
    .fil0 {fill:#FEFEFE}
   ]]>
  </style>
 </defs>
 <g id="Camada_x0020_1">
  <metadata id="CorelCorpID_0Corel-Layer"/>
  <g id="_1372044311984">
   <path class="fil0" d="M2446.86 1545.94c0,98.76 41.29,113.26 99.48,171.45 45.41,45.41 383.11,366.58 383.11,395.82 0,54.9 -63.53,93.17 -116.41,146.05l-245.53 245.53c-113,113 -112.19,83.8 -112.19,209.55 0,86.64 146.77,181.93 260.44,65.7l266.61 -266.78c53.95,-53.95 118.63,-127.91 175.68,-171.45 96.55,-73.68 160.87,-135.7 160.87,-237.07 0,-70.88 -76.96,-123.53 -150.28,-196.85l-444.48 -444.52c-45.91,-46.43 -56.05,-61.36 -133.37,-61.36 -77.38,0 -143.93,66.55 -143.93,143.93z"/>
   <path class="fil0" d="M914.39 2087.81c0,133.89 23.87,121.23 150.29,247.65 59.92,59.92 113.64,113.64 173.56,173.56 56.38,56.38 299.01,323.85 361.95,323.85 72.21,0 109.81,6.34 162.69,-74.38 21.8,-33.28 15.11,-46.44 15.11,-103.42 0,-60.13 -187.14,-225.24 -234.95,-273.05l-256.11 -251.88c22.38,-96.1 482.59,-445.05 482.59,-541.86l0 -67.74c0,-51.92 -58.14,-110.06 -110.06,-110.06 -132.48,0 -100.55,3.18 -251.88,154.51l-342.9 334.43c-38.62,38.62 -150.29,127.49 -150.29,188.39z"/>
   <path class="fil0" d="M1845.72 2790.54l0 84.66c0,43.99 66.08,110.07 110.07,110.07 63.94,0 157.06,5.45 185.9,-118.89 39.45,-170.02 72.24,-439.13 109.7,-626.91 16.02,-80.29 136.2,-763.2 136.2,-845.93 0,-161.94 -247.83,-212.12 -299.6,-28.66 -24.79,87.86 -242.27,1363.33 -242.27,1425.66z"/>
  </g>
 </g>
</svg>
