<?xml version="1.0" standalone="no"?>
<!DOCTYPE svg PUBLIC "-//W3C//DTD SVG 20010904//EN"
 "http://www.w3.org/TR/2001/REC-SVG-20010904/DTD/svg10.dtd">
<svg version="1.0" xmlns="http://www.w3.org/2000/svg"
 width="500.000000pt" height="500.000000pt" viewBox="0 0 500.000000 500.000000"
 preserveAspectRatio="xMidYMid meet">

<g transform="translate(0.000000,500.000000) scale(0.100000,-0.100000)"
fill="#000000" stroke="none">
<path d="M1365 4531 c-16 -10 -85 -74 -152 -143 -98 -102 -128 -139 -156 -199
-107 -223 -63 -412 144 -623 44 -44 79 -83 79 -86 0 -3 -27 -41 -60 -84 -33
-44 -62 -88 -66 -98 -9 -29 -21 -22 -63 40 -22 33 -62 79 -90 104 -96 86 -297
163 -457 175 l-82 6 -36 -74 c-43 -88 -82 -234 -91 -344 -17 -202 81 -396 237
-472 35 -16 120 -49 189 -72 l125 -41 -4 -143 c-2 -78 -6 -144 -8 -146 -3 -3
-44 8 -92 24 -110 36 -185 36 -387 0 -182 -31 -199 -41 -203 -114 -4 -66 32
-275 64 -369 41 -123 90 -189 188 -254 126 -82 263 -99 466 -59 58 12 123 21
145 21 40 -1 40 -1 99 -96 32 -52 56 -96 55 -98 -2 -1 -37 -8 -78 -14 -175
-29 -304 -134 -403 -327 -50 -99 -98 -225 -98 -260 0 -19 122 -98 222 -145
120 -56 216 -80 319 -80 208 0 337 90 453 315 61 120 45 116 193 47 70 -33
164 -70 208 -82 44 -12 88 -27 98 -32 17 -9 17 -11 -3 -41 -12 -18 -40 -69
-62 -115 -32 -64 -42 -97 -46 -150 -4 -61 -2 -71 20 -96 17 -21 36 -29 69 -33
l45 -5 22 48 c12 27 27 73 32 103 50 271 425 334 566 95 13 -22 28 -65 34 -95
5 -30 20 -75 32 -101 24 -53 42 -59 103 -34 47 20 58 47 52 123 -5 63 -52 178
-107 260 l-22 33 26 9 c14 6 58 20 98 32 40 12 131 48 201 81 148 69 132 72
193 -47 115 -224 247 -316 451 -316 141 0 316 62 475 167 l70 47 -6 46 c-10
82 -151 336 -235 424 -69 73 -151 113 -261 129 -44 7 -80 16 -80 20 0 5 26 48
57 98 58 88 58 89 100 89 23 1 91 -9 150 -21 59 -12 144 -21 188 -22 196 0
378 122 450 302 32 81 77 323 73 397 -4 80 -18 88 -203 120 -199 35 -279 35
-384 0 -45 -15 -84 -25 -87 -23 -7 7 -27 279 -21 285 3 3 72 27 154 55 81 27
166 60 189 73 98 58 184 197 205 334 20 133 -20 339 -93 485 l-30 59 -81 -6
c-93 -6 -232 -44 -324 -88 -101 -48 -165 -106 -260 -233 -11 -15 -17 -17 -20
-8 -3 7 -34 51 -69 99 -35 47 -64 88 -64 92 0 4 35 43 79 87 207 211 251 400
144 623 -29 60 -57 97 -159 201 -134 138 -175 167 -218 156 -34 -8 -180 -147
-259 -246 -109 -136 -150 -265 -127 -398 24 -138 69 -212 220 -362 304 -303
449 -551 522 -894 28 -134 30 -368 3 -506 -112 -590 -563 -1048 -1152 -1167
-68 -14 -134 -18 -288 -18 -181 1 -211 3 -312 27 -428 101 -769 375 -964 773
-32 66 -70 155 -83 198 -127 394 -84 810 120 1158 73 125 167 240 331 406 130
130 156 162 191 231 88 175 75 342 -37 506 -41 59 -183 209 -244 258 -55 43
-78 46 -122 19z m147 -300 c103 -105 129 -154 130 -244 0 -114 -53 -220 -161
-320 l-62 -57 -28 20 c-56 39 -145 146 -175 210 -42 89 -43 179 -1 260 27 53
178 220 199 220 6 0 50 -40 98 -89z m2166 5 c102 -104 137 -171 137 -266 0
-52 -6 -78 -31 -130 -30 -64 -119 -171 -175 -211 l-29 -20 -78 78 c-152 152
-185 299 -99 441 31 52 166 192 184 192 5 0 46 -38 91 -84z m-2981 -841 c122
-41 179 -72 226 -124 49 -55 61 -97 54 -205 -5 -84 -39 -242 -55 -257 -10 -9
-115 14 -183 40 -111 42 -185 109 -210 192 -5 19 -10 68 -10 110 0 102 40 279
63 279 6 0 57 -16 115 -35z m3747 -15 c42 -141 47 -311 13 -377 -29 -54 -86
-104 -161 -139 -71 -33 -205 -67 -218 -55 -4 3 -19 47 -34 96 -38 130 -39 231
-1 307 33 66 75 107 156 148 52 26 183 68 218 69 7 1 19 -22 27 -49z m-3668
-1213 c103 -52 163 -167 183 -346 6 -60 5 -72 -8 -75 -42 -12 -249 -28 -297
-23 -105 11 -182 81 -225 204 -24 71 -54 231 -45 240 14 14 173 32 256 29 68
-3 96 -9 136 -29z m3786 14 c27 -5 51 -11 54 -14 10 -9 -16 -146 -42 -226 -46
-138 -118 -207 -228 -218 -48 -5 -255 11 -297 23 -13 3 -14 15 -8 72 24 224
103 341 252 372 43 9 183 4 269 -9z m-656 -996 c70 -29 156 -130 223 -263 l31
-62 -32 -20 c-18 -12 -71 -40 -118 -63 -80 -39 -90 -42 -170 -42 -102 0 -147
20 -225 100 -48 49 -116 166 -130 226 -6 22 -2 27 32 41 21 9 75 33 120 53
125 55 189 62 269 30z m-2498 -46 c129 -62 126 -54 67 -175 -63 -129 -148
-203 -258 -225 -45 -9 -69 -8 -129 5 -80 18 -231 94 -236 119 -2 8 13 48 34
89 92 185 183 251 334 244 67 -3 88 -9 188 -57z"/>
<path d="M2327 3579 c-457 -67 -853 -411 -981 -852 -67 -229 -60 -480 20 -722
136 -412 491 -713 931 -790 111 -19 307 -19 419 0 294 52 553 209 730 444 312
414 336 940 62 1377 -62 100 -201 252 -296 324 -140 105 -331 185 -515 215
-99 16 -275 18 -370 4z m428 -198 c117 -32 286 -118 385 -199 166 -134 292
-329 346 -537 23 -87 27 -120 27 -250 0 -129 -4 -163 -26 -248 -31 -115 -99
-264 -161 -351 -91 -127 -255 -260 -404 -328 -170 -77 -435 -109 -612 -74
-188 38 -371 133 -511 264 -148 139 -241 300 -291 499 -33 133 -31 351 4 484
63 233 193 428 380 569 127 96 234 143 423 186 91 21 337 12 440 -15z"/>
</g>
</svg>
