<?xml version="1.0" encoding="UTF-8"?>
<!DOCTYPE svg PUBLIC "-//W3C//DTD SVG 1.1//EN" "http://www.w3.org/Graphics/SVG/1.1/DTD/svg11.dtd">
<!-- Creator: CorelDRAW 2020 (64 Bit) -->
<svg xmlns="http://www.w3.org/2000/svg" xml:space="preserve" width="42.3332mm" height="42.3332mm" version="1.1" style="shape-rendering:geometricPrecision; text-rendering:geometricPrecision; image-rendering:optimizeQuality; fill-rule:evenodd; clip-rule:evenodd"
viewBox="0 0 4233.32 4233.32"
 xmlns:xlink="http://www.w3.org/1999/xlink"
 xmlns:xodm="http://www.corel.com/coreldraw/odm/2003">
 <defs>
  <style type="text/css">
   <![CDATA[
    .fil0 {fill:gold;fill-rule:nonzero}
   ]]>
  </style>
 </defs>
 <g id="Camada_x0020_1">
  <metadata id="CorelCorpID_0Corel-Layer"/>
  <g id="_1370112807808">
   <g>
    <path class="fil0" d="M1088.39 238.73c-14.49,9.06 -77.01,67.04 -137.71,129.56 -88.78,92.4 -115.96,125.93 -141.33,180.29 -96.94,202.03 -57.08,373.26 130.46,564.43 39.87,39.86 71.57,75.2 71.57,77.91 0,2.72 -24.46,37.15 -54.36,76.11 -29.89,39.86 -56.17,79.72 -59.79,88.78 -8.15,26.28 -19.03,19.93 -57.08,-36.24 -19.93,-29.9 -56.17,-71.57 -81.54,-94.22 -86.97,-77.92 -269.07,-147.68 -414.03,-158.55l-74.29 -5.43 -32.62 67.04c-38.96,79.73 -74.29,212 -82.44,311.66 -15.41,183.01 73.38,358.77 214.71,427.63 31.71,14.49 108.72,44.39 171.24,65.23l113.24 37.14 -3.62 129.56c-1.81,70.67 -5.44,130.46 -7.25,132.27 -2.71,2.72 -39.86,-7.24 -83.35,-21.74 -99.66,-32.62 -167.61,-32.62 -350.62,0 -164.89,28.09 -180.29,37.15 -183.91,103.28 -3.63,59.8 28.99,249.15 57.98,334.31 37.15,111.44 81.54,171.23 170.33,230.13 114.15,74.29 238.27,89.69 422.19,53.45 52.54,-10.87 111.43,-19.03 131.36,-19.03 36.24,0.91 36.24,0.91 89.7,86.98 28.99,47.11 50.73,86.98 49.83,88.79 -1.82,0.9 -33.53,7.24 -70.67,12.68 -158.55,26.27 -275.42,121.4 -365.11,296.26 -45.3,89.69 -88.79,203.84 -88.79,235.55 0,17.22 110.53,88.79 201.13,131.37 108.72,50.74 195.69,72.48 289.01,72.48 188.45,0 305.32,-81.54 410.41,-285.39 55.27,-108.71 40.77,-105.09 174.86,-42.58 63.42,29.9 148.58,63.42 188.44,74.29 39.87,10.87 79.73,24.46 88.79,29 15.4,8.15 15.4,9.96 -2.72,37.14 -10.87,16.31 -36.24,62.51 -56.17,104.19 -28.99,57.98 -38.05,87.88 -41.67,135.9 -3.63,55.26 -1.82,64.32 18.12,86.97 15.4,19.03 32.61,26.28 62.51,29.9l40.77 4.53 19.93 -43.48c10.87,-24.47 24.46,-66.14 28.99,-93.32 45.3,-245.52 385.05,-302.6 512.79,-86.07 11.78,19.93 25.37,58.89 30.8,86.07 4.54,27.18 18.13,67.95 29,91.5 21.74,48.02 38.05,53.46 93.31,30.81 42.59,-18.12 52.55,-42.59 47.11,-111.44 -4.53,-57.08 -47.11,-161.26 -96.94,-235.56l-19.93 -29.89 23.56 -8.16c12.68,-5.44 52.54,-18.12 88.78,-28.99 36.24,-10.87 118.69,-43.49 182.11,-73.39 134.08,-62.51 119.59,-65.23 174.85,42.59 104.19,202.94 223.78,286.29 408.6,286.29 127.75,0 286.3,-56.17 430.35,-151.3l63.41 -42.58 -5.43 -41.68c-9.06,-74.29 -136.81,-304.41 -212.91,-384.14 -62.52,-66.14 -136.8,-102.38 -236.46,-116.87 -39.87,-6.34 -72.48,-14.49 -72.48,-18.12 0,-4.53 23.55,-43.49 51.64,-88.79 52.55,-79.72 52.55,-80.63 90.6,-80.63 20.84,-0.91 82.44,8.15 135.9,19.03 53.45,10.87 130.46,19.02 170.32,19.93 177.57,0 342.46,-110.53 407.7,-273.61 28.99,-73.39 69.76,-292.64 66.13,-359.68 -3.62,-72.48 -16.3,-79.73 -183.91,-108.72 -180.29,-31.71 -252.77,-31.71 -347.9,0 -40.77,13.59 -76.1,22.65 -78.82,20.84 -6.34,-6.34 -24.47,-252.77 -19.03,-258.21 2.72,-2.71 65.23,-24.46 139.52,-49.83 73.39,-24.46 150.4,-54.36 171.24,-66.13 88.78,-52.55 166.7,-178.48 185.72,-302.6 18.12,-120.5 -18.12,-307.14 -84.25,-439.41l-27.18 -53.45 -73.39 5.43c-84.25,5.44 -210.19,39.87 -293.54,79.73 -91.5,43.49 -149.49,96.03 -235.55,211.1 -9.97,13.59 -15.41,15.4 -18.13,7.24 -2.71,-6.34 -30.8,-46.2 -62.51,-89.69 -31.71,-42.58 -57.98,-79.73 -57.98,-83.35 0,-3.63 31.71,-38.96 71.57,-78.82 187.54,-191.17 227.4,-362.4 130.46,-564.44 -26.27,-54.36 -51.64,-87.88 -144.05,-182.1 -121.4,-125.02 -158.55,-151.3 -197.51,-141.33 -30.8,7.25 -163.08,133.18 -234.65,222.87 -98.75,123.22 -135.9,240.09 -115.06,360.59 21.75,125.02 62.52,192.06 199.32,327.96 275.42,274.52 406.79,499.2 472.92,809.96 25.37,121.4 27.18,333.4 2.72,458.43 -101.47,534.53 -510.07,949.47 -1043.7,1057.29 -61.6,12.68 -121.4,16.3 -260.92,16.3 -163.99,-0.9 -191.16,-2.71 -282.67,-24.46 -387.76,-91.5 -696.7,-339.74 -873.37,-700.33 -29,-59.79 -63.42,-140.43 -75.2,-179.38 -115.06,-356.96 -76.1,-733.85 108.72,-1049.14 66.13,-113.24 151.3,-217.43 299.88,-367.83 117.78,-117.78 141.33,-146.77 173.04,-209.28 79.73,-158.55 67.95,-309.85 -33.52,-458.43 -37.15,-53.46 -165.8,-189.36 -221.06,-233.75 -49.83,-38.96 -70.67,-41.67 -110.53,-17.21l0.01 0zm133.18 271.8c93.32,95.13 116.88,139.52 117.78,221.06 0,103.28 -48.01,199.32 -145.86,289.92l-56.17 51.64 -25.37 -18.13c-50.74,-35.33 -131.37,-132.27 -158.55,-190.25 -38.05,-80.63 -38.95,-162.17 -0.9,-235.56 24.46,-48.01 161.26,-199.31 180.29,-199.31 5.44,0 45.3,36.23 88.78,80.63zm1962.37 -4.53c92.41,94.22 124.12,154.92 124.12,240.99 0,47.11 -5.43,70.67 -28.08,117.78 -27.18,57.98 -107.82,154.92 -158.55,191.16l-26.27 18.12 -70.67 -70.67c-137.71,-137.71 -167.61,-270.89 -89.69,-399.54 28.08,-47.11 150.39,-173.94 166.7,-173.94 4.53,0 41.67,34.42 82.44,76.1zm-2700.75 761.93c110.54,37.15 162.18,65.23 204.76,112.34 44.39,49.83 55.26,87.88 48.92,185.73 -4.53,76.1 -35.33,219.25 -49.83,232.84 -9.06,8.15 -104.19,-12.68 -165.79,-36.24 -100.57,-38.05 -167.61,-98.75 -190.26,-173.95 -4.53,-17.21 -9.06,-61.61 -9.06,-99.66 0,-92.41 36.24,-252.77 57.08,-252.77 5.43,0 51.64,14.5 104.18,31.71l0 0zm3394.74 13.59c38.05,127.75 42.58,281.77 11.78,341.56 -26.28,48.92 -77.92,94.22 -145.87,125.93 -64.32,29.9 -185.72,60.7 -197.5,49.83 -3.63,-2.72 -17.22,-42.58 -30.81,-86.97 -34.42,-117.78 -35.33,-209.29 -0.9,-278.14 29.9,-59.8 67.95,-96.94 141.33,-134.09 47.11,-23.55 165.8,-61.61 197.51,-62.51 6.34,-0.91 17.21,19.93 24.46,44.39l0 0zm-3323.16 1098.97c93.31,47.11 147.67,151.3 165.79,313.47 5.44,54.36 4.53,65.23 -7.25,67.94 -38.05,10.88 -225.59,25.37 -269.07,20.84 -95.13,-9.96 -164.9,-73.38 -203.85,-184.82 -21.75,-64.32 -48.93,-209.28 -40.77,-217.44 12.68,-12.68 156.74,-28.99 231.93,-26.27 61.61,2.71 86.98,8.15 123.22,26.27l0 0.01zm3430.07 -12.69c24.46,4.53 46.2,9.97 48.92,12.69 9.06,8.15 -14.49,132.27 -38.05,204.75 -41.68,125.02 -106.91,187.54 -206.57,197.51 -43.48,4.53 -231.02,-9.97 -269.07,-20.84 -11.78,-2.72 -12.69,-13.59 -7.25,-65.23 21.74,-202.94 93.31,-308.94 228.31,-337.03 38.95,-8.15 165.79,-3.62 243.71,8.15l0 0zm-594.33 902.37c63.42,26.27 141.33,117.77 202.03,238.27l28.09 56.17 -28.99 18.12c-16.31,10.87 -64.33,36.24 -106.91,57.08 -72.48,35.33 -81.54,38.05 -154.02,38.05 -92.41,0 -133.18,-18.12 -203.84,-90.6 -43.49,-44.39 -105.1,-150.39 -117.78,-204.75 -5.44,-19.93 -1.82,-24.46 28.99,-37.15 19.02,-8.15 67.95,-29.89 108.72,-48.01 113.24,-49.83 171.23,-56.17 243.71,-27.18l0 0zm-2263.16 41.67c116.87,56.17 114.16,48.93 60.7,158.55 -57.07,116.87 -134.08,183.92 -233.74,203.85 -40.77,8.15 -62.52,7.24 -116.87,-4.53 -72.48,-16.31 -209.29,-85.17 -213.82,-107.82 -1.81,-7.24 11.78,-43.48 30.8,-80.63 83.36,-167.61 165.8,-227.4 302.6,-221.06 60.7,2.72 79.73,8.15 170.33,51.64l0 0z"/>
    <path class="fil0" d="M1959.95 1101.23c-414.03,60.7 -772.8,372.36 -888.77,771.9 -60.7,207.47 -54.36,434.88 18.12,654.13 123.21,373.26 444.84,645.97 843.47,715.73 100.57,17.21 278.14,17.21 379.61,0 266.36,-47.11 501.01,-189.36 661.37,-402.26 282.67,-375.08 304.42,-851.63 56.18,-1247.55 -56.18,-90.6 -182.11,-228.3 -268.18,-293.54 -126.84,-95.13 -299.88,-167.6 -466.58,-194.78 -89.69,-14.5 -249.15,-16.31 -335.22,-3.63l0 0zm387.77 179.39c106,28.99 259.11,106.9 348.8,180.29 150.39,121.4 264.55,298.07 313.47,486.52 20.84,78.82 24.46,108.71 24.46,226.49 0,116.87 -3.62,147.68 -23.55,224.69 -28.09,104.18 -89.7,239.18 -145.87,318 -82.44,115.06 -231.02,235.55 -366.01,297.16 -154.02,69.76 -394.11,98.75 -554.47,67.05 -170.32,-34.43 -336.12,-120.5 -462.96,-239.18 -134.08,-125.94 -218.34,-271.8 -263.64,-452.09 -29.9,-120.5 -28.08,-318 3.62,-438.5 57.08,-211.09 174.86,-387.76 344.28,-515.51 115.06,-86.97 212,-129.55 383.23,-168.51 82.45,-19.03 305.32,-10.87 398.64,13.59l0 0z"/>
   </g>
  </g>
 </g>
</svg>
