<?xml version="1.0" encoding="UTF-8"?>
<!DOCTYPE svg PUBLIC "-//W3C//DTD SVG 1.1//EN" "http://www.w3.org/Graphics/SVG/1.1/DTD/svg11.dtd">
<!-- Creator: CorelDRAW 2020 (64 Bit) -->
<svg xmlns="http://www.w3.org/2000/svg" xml:space="preserve" width="42.3332mm" height="42.3332mm" version="1.1" style="shape-rendering:geometricPrecision; text-rendering:geometricPrecision; image-rendering:optimizeQuality; fill-rule:evenodd; clip-rule:evenodd"
viewBox="0 0 4233.32 4233.32"
 xmlns:xlink="http://www.w3.org/1999/xlink"
 xmlns:xodm="http://www.corel.com/coreldraw/odm/2003">
 <defs>
  <style type="text/css">
   <![CDATA[
    .fil0 {fill:#FEFEFE}
   ]]>
  </style>
 </defs>
 <g id="Camada_x0020_1">
  <metadata id="CorelCorpID_0Corel-Layer"/>
  <g id="_1463836726976">
   <g id="_2281544171488">
    <path class="fil0" d="M1943.62 391.85c714.41,-92.45 1370.86,315.76 1695.33,890.72 366.19,648.88 238.1,1467.34 -208.65,1968.67 -845.38,948.64 -2281.62,722.96 -2836.8,-303.35 -566.84,-1047.86 35.39,-2385.9 1350.12,-2556.04zm-1801.26 1877.45c87.68,1043.63 979.94,1910.34 2126.48,1822.39 1028.78,-78.91 1920.96,-991.08 1821.8,-2128.09 -91.14,-1045.37 -993.93,-1921.12 -2130.89,-1820.19 -275.87,24.49 -549.03,103.15 -763.07,220.32 -213.2,116.69 -430.26,278.24 -555.28,432.95 -336.45,416.3 -548.93,878.79 -499.04,1472.62z"/>
    <path class="fil0" d="M1707.36 1696l1235.05 -1.09c181.26,0 354.85,19.93 399.8,-144.55 22.57,-82.54 -8.48,-158.78 -58.08,-204.51 -90.63,-83.56 -484.6,-53.58 -603.26,-53.25l-697.44 0c-191.59,0 -391.07,-35.39 -478.49,90.66 -112.6,162.31 29.99,312.74 202.42,312.74z"/>
    <path class="fil0" d="M3338.57 2806.92c35.06,-86.58 -4.65,-165.01 -53.47,-211.99 -60.5,-58.18 -127.64,-56.26 -226.42,-55.59 -188.96,1.3 -377.76,0.17 -566.71,0.21 -188.89,0.03 -377.76,1.16 -566.66,0.2 -193.93,-0.98 -382.05,-33 -442.26,129.5 -35.23,95.08 5.77,176.77 54.46,220.56 61.13,54.99 129.36,51.99 227.94,51.57l1133.37 0.42c185.64,-0.16 369.22,39.35 439.75,-134.88z"/>
    <path class="fil0" d="M1983.43 2317.58l959.89 0c174.21,0 353.41,20.99 398.89,-143.16 23.08,-83.33 -9.29,-149.9 -51.59,-195.79 -77.84,-84.45 -204.29,-62.59 -348.21,-62.07l-1220.52 -0.64c-102.76,0 -157.58,17.08 -206.69,74.4 -51.16,59.75 -58.08,159.21 -18.59,228.13 80.42,140.33 296.66,99.13 486.82,99.13z"/>
    <path class="fil0" d="M1074.06 1876.42c-337.98,103.14 -181.31,566.45 128.8,484.58 323.39,-85.38 182.89,-579.68 -128.8,-484.58z"/>
    <path class="fil0" d="M1049.62 1259.61c-306.98,116.92 -140.47,591.35 176.94,470.54 303.95,-115.69 137.03,-590.1 -176.94,-470.54z"/>
    <path class="fil0" d="M886.35 2777.85c36.45,298.35 543.09,272.73 500.63,-70.7 -39.79,-321.85 -542.66,-273.41 -500.63,70.7z"/>
   </g>
  </g>
 </g>
</svg>
