<?xml version="1.0" encoding="UTF-8"?>
<!DOCTYPE svg PUBLIC "-//W3C//DTD SVG 1.1//EN" "http://www.w3.org/Graphics/SVG/1.1/DTD/svg11.dtd">
<!-- Creator: CorelDRAW 2020 (64 Bit) -->
<svg xmlns="http://www.w3.org/2000/svg" xml:space="preserve" width="42.3332mm" height="42.3332mm" version="1.1" style="shape-rendering:geometricPrecision; text-rendering:geometricPrecision; image-rendering:optimizeQuality; fill-rule:evenodd; clip-rule:evenodd"
viewBox="0 0 4233.32 4233.32"
 xmlns:xlink="http://www.w3.org/1999/xlink"
 xmlns:xodm="http://www.corel.com/coreldraw/odm/2003">
 <defs>
  <style type="text/css">
   <![CDATA[
    .fil0 {fill:gold;fill-rule:nonzero}
   ]]>
  </style>
 </defs>
 <g id="Camada_x0020_1">
  <metadata id="CorelCorpID_0Corel-Layer"/>
  <g id="_1406586481264">
   <g>
    <path class="fil0" d="M1064.2 128.87c-32.78,5.32 -64.68,21.26 -70.88,35.44 -4.43,8.86 -9.75,58.47 -12.4,112.51l-4.43 97.46 -274.65 0c-297.68,0 -325.15,4.43 -351.73,50.5 -17.72,30.12 -14.17,318.94 5.32,454.5 20.38,144.41 35.44,198.45 80.62,294.13 97.46,206.43 195.8,304.77 446.53,446.53 120.49,67.33 170.99,117.83 186.93,186.05 37.21,154.15 -75.3,302.99 -230.35,303.88 -65.56,0 -110.74,-18.6 -156.81,-67.33 -37.21,-38.98 -45.19,-62.02 -54.93,-165.68 -4.43,-48.72 -12.4,-95.68 -17.72,-106.31 -37.21,-69.1 -124.92,-32.78 -139.09,57.59 -8.86,59.36 9.74,165.67 39.86,231.23 73.54,156.82 247.19,237.44 417.29,194.03 101.88,-26.58 176.3,-78.85 237.43,-167.45 41.65,-61.13 41.65,-61.13 54.93,-39.87 26.58,42.53 139.98,152.39 212.63,207.32 41.64,31.01 121.38,78.85 177.2,106.31 55.81,27.47 108.97,55.82 117.83,63.79 13.29,11.52 15.06,31.01 15.06,156.82 0,203.77 -23.04,269.33 -110.75,313.62l-44.29 23.04 -270.22 0c-242.75,0 -273.76,1.77 -295.02,15.06 -46.96,31.89 -46.07,17.72 -46.07,560.81 0,278.19 3.54,523.6 7.08,546.64 4.43,25.69 12.41,43.41 22.15,46.95 42.53,15.95 573.22,23.92 1345.77,19.49 919.62,-5.31 876.21,-2.66 896.59,-60.24 12.4,-36.33 14.17,-1041.89 0.89,-1074.67 -4.43,-12.4 -18.61,-29.24 -32.79,-38.09 -22.14,-14.18 -45.18,-15.95 -271.1,-13.29 -302.11,3.54 -330.46,-0.89 -388.05,-59.36 -23.92,-23.04 -46.07,-55.82 -53.16,-76.2 -6.2,-21.26 -12.4,-101 -14.17,-196.68l-4.43 -161.24 93.91 -44.3c165.67,-77.97 287.94,-166.56 387.16,-282.62 30.12,-34.55 57.59,-63.79 62.02,-63.79 3.54,0 17.72,21.26 32.78,46.95 70.88,124.92 229.46,195.8 388.93,173.65 190.48,-26.58 312.75,-178.96 312.75,-388.05 0,-85.05 -45.19,-144.41 -100.12,-130.24 -34.55,7.98 -51.38,49.62 -59.35,141.76 -8.86,95.68 -18.61,124.03 -55.82,163.01 -69.99,73.54 -174.53,90.37 -261.36,41.64 -107.2,-58.47 -155.93,-174.53 -123.14,-288.82 21.26,-71.76 57.58,-108.97 151.49,-155.93 240.1,-119.6 399.57,-280.85 493.48,-497.91 39.87,-93.91 55.82,-165.67 75.31,-346.41 18.6,-184.27 14.17,-344.63 -11.52,-378.3 -30.12,-41.64 -62.01,-45.18 -354.38,-39.87l-266.67 4.43 0.88 -87.71c1.78,-100.11 -9.74,-139.09 -45.18,-153.27 -21.27,-7.97 -2092.63,-19.49 -2142.25,-11.52l0.01 0.01zm2034.15 690.16c0,296.8 -4.43,581.19 -8.86,633.46 -38.09,404 -326.92,738.89 -733.57,850.52 -57.59,15.95 -93.91,19.49 -232.12,19.49 -145.3,0.89 -172.76,-1.77 -243.64,-20.38 -378.3,-99.22 -658.27,-396.9 -728.26,-773.44 -10.63,-60.24 -14.17,-183.39 -17.72,-660.92l-4.43 -586.51 984.3 0 984.3 0 0 537.78 0 0zm635.24 -286.16c11.51,10.63 7.97,233.89 -5.32,324.26 -14.18,102.77 -37.21,179.85 -77.96,261.35 -57.59,115.18 -161.25,235.67 -259.59,303 -38.1,25.7 -126.69,73.54 -137.32,73.54 -2.66,0 -4.43,-215.29 -4.43,-478.42 0,-404.88 1.77,-478.42 12.4,-484.62 16.83,-8.86 463.36,-8.86 472.22,0.89l0 0zm-2749.13 29.23c2.66,18.61 5.32,236.55 5.32,483.74l0 450.06 -19.49 -5.31c-33.67,-9.75 -115.18,-57.59 -167.45,-98.35 -137.32,-105.43 -232.12,-253.38 -279.96,-437.66 -17.72,-68.22 -23.04,-113.4 -26.58,-240.98 -2.66,-85.94 -2.66,-163.02 0,-170.1 5.32,-12.41 35.44,-14.18 243.64,-14.18l238.32 0 6.2 32.78 0 0zm1130.48 1919.87c12.4,0 67.33,-2.65 122.26,-7.08l99.23 -7.09 0 142.64c0,135.55 0.89,146.18 26.58,219.72 15.06,41.64 23.92,78.85 21.26,81.5 -5.32,6.21 -543.98,14.18 -543.98,7.98 0,-1.77 11.52,-37.21 26.58,-77.96 24.81,-71.77 26.58,-81.51 26.58,-225.04l0 -148.84 100.11 7.09c54.04,3.54 108.97,7.08 121.38,7.08l0 0zm983.41 1028.6l0 438.55 -983.41 0 -983.41 0 0 -438.55 0 -438.55 983.41 0 983.41 0 0 438.55z"/>
   </g>
  </g>
 </g>
</svg>
