<?xml version="1.0" standalone="no"?>
<!DOCTYPE svg PUBLIC "-//W3C//DTD SVG 20010904//EN"
 "http://www.w3.org/TR/2001/REC-SVG-20010904/DTD/svg10.dtd">
<svg version="1.0" xmlns="http://www.w3.org/2000/svg"
 width="500.000000pt" height="500.000000pt" viewBox="0 0 500.000000 500.000000"
 preserveAspectRatio="xMidYMid meet">

<g transform="translate(0.000000,500.000000) scale(0.100000,-0.100000)"
fill="#000000" stroke="none">
<path d="M1314 4682 c-37 -6 -73 -24 -80 -40 -5 -10 -11 -66 -14 -127 l-5
-110 -310 0 c-336 0 -367 -5 -397 -57 -20 -34 -16 -360 6 -513 23 -163 40
-224 91 -332 110 -233 221 -344 504 -504 136 -76 193 -133 211 -210 42 -174
-85 -342 -260 -343 -74 0 -125 21 -177 76 -42 44 -51 70 -62 187 -5 55 -14
108 -20 120 -42 78 -141 37 -157 -65 -10 -67 11 -187 45 -261 83 -177 279
-268 471 -219 115 30 199 89 268 189 47 69 47 69 62 45 30 -48 158 -172 240
-234 47 -35 137 -89 200 -120 63 -31 123 -63 133 -72 15 -13 17 -35 17 -177 0
-230 -26 -304 -125 -354 l-50 -26 -305 0 c-274 0 -309 -2 -333 -17 -53 -36
-52 -20 -52 -633 0 -314 4 -591 8 -617 5 -29 14 -49 25 -53 48 -18 647 -27
1519 -22 1038 6 989 3 1012 68 14 41 16 1176 1 1213 -5 14 -21 33 -37 43 -25
16 -51 18 -306 15 -341 -4 -373 1 -438 67 -27 26 -52 63 -60 86 -7 24 -14 114
-16 222 l-5 182 106 50 c187 88 325 188 437 319 34 39 65 72 70 72 4 0 20 -24
37 -53 80 -141 259 -221 439 -196 215 30 353 202 353 438 0 96 -51 163 -113
147 -39 -9 -58 -56 -67 -160 -10 -108 -21 -140 -63 -184 -79 -83 -197 -102
-295 -47 -121 66 -176 197 -139 326 24 81 65 123 171 176 271 135 451 317 557
562 45 106 63 187 85 391 21 208 16 389 -13 427 -34 47 -70 51 -400 45 l-301
-5 1 99 c2 113 -11 157 -51 173 -24 9 -2362 22 -2418 13z m2296 -779 c0 -335
-5 -656 -10 -715 -43 -456 -369 -834 -828 -960 -65 -18 -106 -22 -262 -22
-164 -1 -195 2 -275 23 -427 112 -743 448 -822 873 -12 68 -16 207 -20 746
l-5 662 1111 0 1111 0 0 -607z m717 323 c13 -12 9 -264 -6 -366 -16 -116 -42
-203 -88 -295 -65 -130 -182 -266 -293 -342 -43 -29 -143 -83 -155 -83 -3 0
-5 243 -5 540 0 457 2 540 14 547 19 10 523 10 533 -1z m-3103 -33 c3 -21 6
-267 6 -546 l0 -508 -22 6 c-38 11 -130 65 -189 111 -155 119 -262 286 -316
494 -20 77 -26 128 -30 272 -3 97 -3 184 0 192 6 14 40 16 275 16 l269 0 7
-37z m1276 -2167 c14 0 76 3 138 8 l112 8 0 -161 c0 -153 1 -165 30 -248 17
-47 27 -89 24 -92 -6 -7 -614 -16 -614 -9 0 2 13 42 30 88 28 81 30 92 30 254
l0 168 113 -8 c61 -4 123 -8 137 -8z m1110 -1161 l0 -495 -1110 0 -1110 0 0
495 0 495 1110 0 1110 0 0 -495z"/>
</g>
</svg>
