<?xml version="1.0" encoding="UTF-8"?>
<!DOCTYPE svg PUBLIC "-//W3C//DTD SVG 1.1//EN" "http://www.w3.org/Graphics/SVG/1.1/DTD/svg11.dtd">
<!-- Creator: CorelDRAW 2020 (64 Bit) -->
<svg xmlns="http://www.w3.org/2000/svg" xml:space="preserve" width="42.3332mm" height="42.3332mm" version="1.1" style="shape-rendering:geometricPrecision; text-rendering:geometricPrecision; image-rendering:optimizeQuality; fill-rule:evenodd; clip-rule:evenodd"
viewBox="0 0 4233.32 4233.32"
 xmlns:xlink="http://www.w3.org/1999/xlink"
 xmlns:xodm="http://www.corel.com/coreldraw/odm/2003">
 <defs>
  <style type="text/css">
   <![CDATA[
    .fil0 {fill:#FEFEFE}
   ]]>
  </style>
 </defs>
 <g id="Camada_x0020_1">
  <metadata id="CorelCorpID_0Corel-Layer"/>
  <g id="_1370116468288">
   <path class="fil0" d="M1342.96 1532.83c0,405.17 62.64,694.76 248.03,988.1l25.41 33.85c41.85,56.81 62.77,98.5 122.32,157.08 27.67,27.22 37.46,45.72 63.31,72.16 44.44,45.42 244.8,207.26 302.92,230.53 25.97,10.4 50.63,-13.76 77.92,-32.2l156.65 -114.29c68.13,-57.62 143.53,-131.04 197.31,-200.63 210.06,-271.81 355.52,-635.07 355.52,-982.2 0,-261.08 57.94,-131.57 -321.58,-228.76 -95.28,-24.39 -227.51,-69.18 -308.01,-123.78 -235.56,-159.79 -69.16,-98.12 -390.61,52.01 -54.4,25.4 -140.17,58.64 -199.77,71.15 -42.06,8.84 -64.89,19.05 -109.14,26.33l-178.91 24.29c-26.62,3 -41.37,-2.21 -41.37,26.36z"/>
   <path class="fil0" d="M2130.35 3133.02c-73.09,0 -356.99,-235.52 -418.68,-309.44l-23.81 -27c-180.42,-189.84 -311.33,-470.07 -375.43,-725.22 -48.59,-193.37 -54.14,-414.35 -54.14,-640.13 179.06,0 370.57,-38.21 510.49,-99.1 91.49,-39.82 297.92,-152.87 344.64,-222.63 97.94,65.58 104.13,95.35 245.48,169.38 33.45,17.51 58.91,29.59 98.01,45.92 180.98,75.61 321.09,106.43 520.11,106.43l5.09 182.49c-6.85,44.15 -8.11,110.02 -12.21,149.06 -12.83,121.99 -34.73,283.38 -69.96,395.7l-64.01 173.06c-42.28,90.19 -78.37,181.46 -133.57,264.36 -53.46,80.27 -142.06,196.11 -209.97,264.17l-168.43 144.82c-15.4,11.63 -192.53,128.13 -193.61,128.13zm-982.13 -1642.52c0,216.86 -10.07,283.62 38.76,503.1 39.89,179.25 75.12,308.77 155.98,470.56 172.17,344.5 440.78,608.47 778.93,787.4l221.91 -142.16c75.94,-50.8 227.22,-190.84 283.59,-258.27 18.65,-22.32 20.73,-28.9 42.66,-50.47 18.5,-18.19 28.16,-29.3 43.36,-49.78 170.64,-230.03 270.46,-457.26 336.26,-755.93 54.1,-245.5 30.35,-295.68 34.95,-503.31 0.85,-38.78 -1.27,-134.5 -14.47,-162.01 -19.27,-9.25 -244.01,-18.95 -294.04,-27.69 -166.52,-29.08 -219.36,-50.67 -367.77,-114.83 -18.34,-7.92 -7.72,-1.97 -22.65,-11.22l-168.55 -119.31c-131.48,-125.42 -101.94,-71.81 -201.62,5.82l-167.24 112.15 -194.94 84.46c-47.05,15.7 -94.16,20.16 -145.92,31.88 -61.35,13.89 -93.88,18.49 -164.31,21.96 -229.4,11.32 -178.46,1.48 -190.15,89.25 -4.37,32.86 -4.74,52.53 -4.74,88.4z"/>
  </g>
 </g>
</svg>
