<?xml version="1.0" encoding="UTF-8"?>
<!DOCTYPE svg PUBLIC "-//W3C//DTD SVG 1.1//EN" "http://www.w3.org/Graphics/SVG/1.1/DTD/svg11.dtd">
<!-- Creator: CorelDRAW 2020 (64 Bit) -->
<svg xmlns="http://www.w3.org/2000/svg" xml:space="preserve" width="42.3332mm" height="42.3332mm" version="1.1" style="shape-rendering:geometricPrecision; text-rendering:geometricPrecision; image-rendering:optimizeQuality; fill-rule:evenodd; clip-rule:evenodd"
viewBox="0 0 4233.32 4233.32"
 xmlns:xlink="http://www.w3.org/1999/xlink"
 xmlns:xodm="http://www.corel.com/coreldraw/odm/2003">
 <defs>
  <style type="text/css">
   <![CDATA[
    .fil0 {fill:#FEFEFE}
   ]]>
  </style>
 </defs>
 <g id="Camada_x0020_1">
  <metadata id="CorelCorpID_0Corel-Layer"/>
  <path class="fil0" d="M1634.24 2561.78c-0.68,-7.57 7.49,-25.24 8.6,-50.67 2.14,-49.08 -3.18,-110.42 17.55,-168.72 40.5,-113.93 139.43,-205.37 262.6,-228.46 68.85,-12.91 169.11,-14.79 227.88,-10.09 135.96,10.87 251.28,-2.27 361.61,138.5 90.24,115.12 87.6,353.36 63.12,464.93l-262.07 288.26c-39.51,39.93 -58.78,91.95 -141.07,113.05l-46.74 12.22c-33.23,7.46 -106.26,-17.57 -144.1,-51.27 -66.67,-59.37 -175.64,-180.7 -249.26,-258.74 -135.85,-144.02 -69.61,-76.97 -90.62,-222.64 -5.55,-38.51 -5.38,-3.13 -7.5,-26.37zm1515.53 -440.27c0,27.76 -90.12,102.83 -112.18,124.89 -21.54,21.54 -38.56,37.31 -59.07,59.46l-290.61 302.06c-0.78,0.94 -2.49,3.14 -3.8,4.66 0,-145.4 6.19,-254.97 -48.96,-348.98 -12.75,-21.73 -23.69,-42.3 -39.04,-62.55 -48.16,-63.52 -66.62,-29.81 -31.83,-123.05 75.35,-201.94 434.5,-142.19 514.41,-88.61 32.16,21.57 71.08,81.29 71.08,132.12zm-2074.32 -8.46c0,-77.05 81.1,-146.28 171.42,-167.3 20.88,-4.85 32.29,-7.7 48.68,-10.84 51.25,-9.81 237.01,5.88 289.47,41.09 58.77,39.43 113.05,130.39 88.19,175.23 -14.46,26.08 -67.21,55.59 -110.22,178.43 -28.39,81.07 -21.88,170.09 -21.88,274.45 -45.81,-30.67 -173.02,-177.44 -234.95,-239.18l-69.01 -74.92c-1.2,-1.26 -3.01,-3 -4.23,-4.24l-25.49 -25.31c-33,-34.99 -131.98,-121.09 -131.98,-147.41zm160.86 -423.34c0,-90.29 53.7,-150.56 142.67,-147.3 32.21,1.18 85.03,22.1 102.72,37.38 60.17,52.01 72.53,252.57 -102.63,257.15 -52.99,1.39 -114.26,-19.99 -133.02,-80.76 -7.61,-24.65 -9.74,-36.84 -9.74,-66.47zm1464.73 0c0.11,-2.1 2.41,-6.86 2.78,-5.68 0.37,1.19 2.16,-4.48 2.66,-5.81 0.98,-2.64 10.03,-61.77 37.15,-89.85 9.82,-10.18 0.94,-3.76 19.03,-14.83 78.75,-48.23 238.15,-38.52 233.36,123.94 -4.23,143.56 -135.69,165.76 -227.79,119.78 -49.06,-24.5 -67.41,-123.11 -67.19,-127.55zm-1066.8 -660.39c-39.75,0 -59.26,7.57 -59.26,50.8 0,54.9 230.03,45.44 400.22,209.37 63.65,61.32 66.14,86.96 158.58,86.96 70.46,0 170.09,-170.51 371.29,-229.84 487.63,-143.8 902.81,283.32 759.81,776.75l-32.82 77.24c-1.14,2.34 -4.38,9.25 -5.49,11.44l-9.06 16.34c-7.36,-31.59 -10.81,-31.16 -30.05,-54.62 -12.06,-14.7 -8.67,-10.47 -19.82,-22.51l-12.31 -13.09c-9.72,-9.87 -3.87,-4.62 -12.88,-12.52 -27.79,-24.4 -71.21,-57.05 -119.68,-58.13 40.75,-60.84 76.2,-90.54 76.2,-177.8 0,-72.47 -27.3,-116.85 -65.46,-154.66 -82.82,-82.05 -113.78,-82.4 -222.4,-82.4 -69.77,0 -194.74,116.34 -194.74,186.26 0,162.13 -17.19,101.78 67.74,228.6 -41.44,0 -53.94,8.74 -76.41,25.2 -57.74,42.28 -137.24,108.5 -143.72,186.47 -42.31,-22.38 -69.9,-50.8 -135.47,-50.8 39.89,-59.57 101.6,-99.42 101.6,-186.27 0,-22.85 -22.54,-33.86 -42.33,-33.86 -56.69,0 -64.85,194.89 -272.2,197.91 -75.45,1.1 -156.77,-37.73 -194.28,-95.5 -79.61,-122.65 -39.7,-308.24 97.24,-361.58 17.09,-6.66 73.45,-22.87 91.13,-23.51 40.26,-1.46 140.9,35.17 169.48,61.11 52.73,47.86 47.62,136.9 117.09,136.9 114.12,0 -57.43,-287.86 -237.06,-287.86 -163.51,0 -242.4,37.52 -330.35,160.72 -65.61,91.9 -57.81,254.9 1.53,345.89 22.54,34.56 52.97,53.42 74.82,86.05 -70.22,0 -98.88,26.96 -143.94,50.8 -1.96,-88.19 -135.77,-202.45 -211.66,-220.13 65.39,-97.66 67.73,-75.37 67.73,-203.2 0,-161.07 -248.3,-294.3 -400.31,-146.31 -83.5,81.29 -112.79,185.32 -57.19,290.54 17.28,32.71 25.17,32.89 42.64,58.97 -51.84,4.31 -100.67,47.49 -132.37,79.29 -25.36,25.43 -50.85,44.86 -53.9,81.57l-16.93 0c-3.93,-47.2 -35.04,-95.39 -47.14,-147.59 -74.2,-320.14 96.6,-631.67 401.63,-725.58 47.84,-14.73 136.57,-20.26 136.57,-75.09 0,-124.43 -314.94,41.84 -370.21,86.98 -135.45,110.62 -273.25,288.25 -273.25,471.82 0,167.71 -10.91,286.97 79.64,436.82 81.21,134.4 204.97,235.89 307.77,352.63l486.89 503.7c96.97,96.48 224.47,290.11 370.29,290.11 136.38,0 170.67,-39.44 251.89,-120.65 57.11,-57.12 107.89,-107.94 165.22,-164.98l647.19 -673.6c48.89,-58.48 110.53,-113.9 146.65,-183.55 89.19,-172 84.45,-236.54 84.45,-423.55 0,-217.16 -157.35,-395.5 -302.2,-502.13 -278.58,-205.08 -656.86,-146.99 -892.46,86.4l-31.73 27.77c-65.9,43.06 -95.94,-9.17 -128.17,-35.48 -111.78,-91.26 -226.26,-194.62 -398.04,-194.62z"/>
 </g>
</svg>
