<?xml version="1.0" standalone="no"?>
<!DOCTYPE svg PUBLIC "-//W3C//DTD SVG 20010904//EN"
 "http://www.w3.org/TR/2001/REC-SVG-20010904/DTD/svg10.dtd">
<svg version="1.0" xmlns="http://www.w3.org/2000/svg"
 width="300.000000pt" height="300.000000pt" viewBox="0 0 300.000000 300.000000"
 preserveAspectRatio="xMidYMid meet">

<g transform="translate(0.000000,300.000000) scale(0.100000,-0.100000)"
fill="#000000" stroke="none">
<path d="M2437 1153 c3 -7 1 -13 -5 -13 -5 0 -22 -28 -37 -62 -139 -314 -422
-623 -753 -822 l-63 -38 -52 27 c-151 80 -355 248 -493 409 -99 114 -188 247
-268 399 l-57 107 -38 0 c-24 0 -41 -5 -44 -14 -8 -21 110 -248 197 -378 161
-241 367 -436 636 -603 51 -31 98 -59 104 -61 29 -11 275 151 406 268 252 225
447 488 535 721 l24 65 -48 4 c-36 2 -47 0 -44 -9z"/>
<path d="M877 1146 c-7 -17 43 -117 105 -212 101 -154 247 -316 368 -408 69
-53 218 -156 226 -156 3 0 51 31 107 69 226 154 425 378 570 642 20 36 34 69
30 73 -3 3 -320 6 -704 6 -585 0 -698 -2 -702 -14z"/>
</g>
</svg>
