<?xml version="1.0" standalone="no"?>
<!DOCTYPE svg PUBLIC "-//W3C//DTD SVG 20010904//EN"
 "http://www.w3.org/TR/2001/REC-SVG-20010904/DTD/svg10.dtd">
<svg version="1.0" xmlns="http://www.w3.org/2000/svg"
 width="300.000000pt" height="300.000000pt" viewBox="0 0 300.000000 300.000000"
 preserveAspectRatio="xMidYMid meet">

<g transform="translate(0.000000,300.000000) scale(0.100000,-0.100000)"
fill="#000000" stroke="none">
<path d="M366 1098 c50 -51 180 -187 289 -303 504 -531 635 -663 681 -691 84
-50 221 -51 313 -4 37 19 172 153 576 575 131 138 298 310 369 383 l131 132
-76 0 -76 0 -50 -55 c-27 -30 -117 -124 -200 -209 l-150 -156 -7 118 c-7 124
-26 224 -51 272 -14 28 -20 30 -70 30 l-54 0 32 -67 32 -68 3 -201 3 -201
-139 -144 c-76 -79 -172 -179 -212 -221 -86 -91 -139 -121 -215 -121 -82 0
-126 28 -252 160 -61 65 -156 165 -212 223 l-100 105 -1 181 c0 156 3 189 20
239 11 33 27 69 35 82 8 12 15 25 15 28 0 3 -24 5 -54 5 l-54 0 -20 -48 c-29
-68 -39 -120 -47 -251 l-7 -114 -96 99 c-53 54 -143 147 -201 207 l-104 107
-71 0 -71 0 91 -92z"/>
</g>
</svg>
